<?xml version="1.0" standalone="no"?><!DOCTYPE svg PUBLIC "-//W3C//DTD SVG 1.1//EN" "http://www.w3.org/Graphics/SVG/1.1/DTD/svg11.dtd"><svg t="1584605990429" class="icon" viewBox="0 0 1024 1024" version="1.1" xmlns="http://www.w3.org/2000/svg" p-id="2821" xmlns:xlink="http://www.w3.org/1999/xlink" width="200" height="200"><defs><style type="text/css"></style></defs><path d="M527.344 434.144c91.968 61.088 142.432 182.48 92.48 303.488-47.504 115.12-173.952 157.728-286.288 166.096-109.6 8.16-225.808-18.608-249.088-126.224-23.12-106.912 64-216.032 159.136-289.792 90.848-70.432 202.736-107.392 283.76-53.568z" p-id="2822"></path><path d="M624 224m-32 0a32 32 0 1 0 64 0 32 32 0 1 0-64 0Z" p-id="2823" ></path><path d="M736 304m-16 0a16 16 0 1 0 32 0 16 16 0 1 0-32 0Z" p-id="2824"></path></svg>
