<?xml version="1.0" standalone="no"?><!DOCTYPE svg PUBLIC "-//W3C//DTD SVG 1.1//EN" "http://www.w3.org/Graphics/SVG/1.1/DTD/svg11.dtd"><svg class="icon" width="48px" height="48.00px" viewBox="0 0 1024 1024" version="1.1" xmlns="http://www.w3.org/2000/svg"><path d="M554.666667 597.333333a213.333333 213.333333 0 0 1 213.12 204.074667L768 810.666667v85.333333a42.666667 42.666667 0 0 1-85.034667 4.992L682.666667 896v-85.333333a128 128 0 0 0-120.490667-127.786667L554.666667 682.666667H213.333333a128 128 0 0 0-127.786666 120.490666L85.333333 810.666667v85.333333a42.666667 42.666667 0 0 1-85.034666 4.992L0 896v-85.333333a213.333333 213.333333 0 0 1 204.074667-213.12L213.333333 597.333333h341.333334z m309.333333 6.912a213.333333 213.333333 0 0 1 159.786667 196.736L1024 810.666667v85.333333a42.666667 42.666667 0 0 1-85.034667 4.992L938.666667 896v-85.333333a128 128 0 0 0-96-123.818667 42.666667 42.666667 0 1 1 21.333333-82.602667zM384 85.333333a213.333333 213.333333 0 1 1 0 426.666667A213.333333 213.333333 0 0 1 384 85.333333z m309.248 6.869334a213.333333 213.333333 0 0 1 0 413.354666 42.666667 42.666667 0 0 1-21.162667-82.688 128 128 0 0 0 0-247.978666 42.666667 42.666667 0 1 1 21.162667-82.688zM384 170.666667a128 128 0 1 0 0 256 128 128 0 0 0 0-256z" /></svg>
