<?xml version="1.0" standalone="no"?><!DOCTYPE svg PUBLIC "-//W3C//DTD SVG 1.1//EN" "http://www.w3.org/Graphics/SVG/1.1/DTD/svg11.dtd"><svg class="icon" width="48px" height="48.00px" viewBox="0 0 1024 1024" version="1.1" xmlns="http://www.w3.org/2000/svg"><path d="M682.666667 85.333333a42.666667 42.666667 0 0 1 42.666666 42.666667v170.666667h128a42.666667 42.666667 0 0 1 25.941334 8.789333l4.266666 3.712 128 128A42.666667 42.666667 0 0 1 1024 469.333333v213.333334a42.666667 42.666667 0 0 1-42.666667 42.666666h-57.045333a149.333333 149.333333 0 1 1-269.909333 0H369.621333a149.333333 149.333333 0 1 1-269.909333 0H42.666667a42.666667 42.666667 0 0 1-42.666667-42.666666V128a42.666667 42.666667 0 0 1 42.666667-42.666667zM234.666667 725.333333a64 64 0 1 0 0 128 64 64 0 0 0 0-128z m554.666666 0a64 64 0 1 0 0 128 64 64 0 0 0 0-128zM640 170.666667H85.333333v469.333333h554.666667V170.666667z m195.626667 213.333333H725.333333v256h213.333334v-152.96L835.626667 384z" /></svg>
