<?xml version="1.0" standalone="no"?><!DOCTYPE svg PUBLIC "-//W3C//DTD SVG 1.1//EN" "http://www.w3.org/Graphics/SVG/1.1/DTD/svg11.dtd"><svg class="icon" width="48px" height="48.00px" viewBox="0 0 1024 1024" version="1.1" xmlns="http://www.w3.org/2000/svg"><path  d="M597.333333 42.666667a43.093333 43.093333 0 0 1 10.666667 1.322666l1.28 0.384c1.28 0.384 2.602667 0.853333 3.882667 1.322667l1.152 0.512a38.997333 38.997333 0 0 1 8.32 4.778667c1.706667 1.28 3.328 2.645333 4.864 4.181333l-3.968-3.498667 0.469333 0.384 3.498667 3.114667 256 256a42.922667 42.922667 0 0 1 8.96 13.184l0.512 1.152c0.512 1.28 0.938667 2.56 1.322666 3.882667l0.341334 1.28A39.296 39.296 0 0 1 896 341.333333l-0.341333-5.376 0.042666 0.426667L896 341.333333v512a128 128 0 0 1-128 128H256a128 128 0 0 1-128-128V170.666667a128 128 0 0 1 128-128h341.333333z m-42.666666 85.333333H256a42.666667 42.666667 0 0 0-42.666667 42.666667v682.666666a42.666667 42.666667 0 0 0 42.666667 42.666667h512a42.666667 42.666667 0 0 0 42.666667-42.666667V384h-213.333334a42.666667 42.666667 0 0 1-42.368-37.674667L554.666667 341.333333V128z m128 554.666667a42.666667 42.666667 0 0 1 4.992 85.034666L682.666667 768H341.333333a42.666667 42.666667 0 0 1-4.992-85.034667L341.333333 682.666667h341.333334z m0-170.666667a42.666667 42.666667 0 0 1 4.992 85.034667L682.666667 597.333333H341.333333a42.666667 42.666667 0 0 1-4.992-85.034666L341.333333 512h341.333334z m-256-170.666667a42.666667 42.666667 0 0 1 4.992 85.034667L426.666667 426.666667H341.333333a42.666667 42.666667 0 0 1-4.992-85.034667L341.333333 341.333333h85.333334z m213.333333-152.96V298.666667h110.293333L640 188.373333z" fill="#ffffff" /></svg>
