<?xml version="1.0" standalone="no"?><!DOCTYPE svg PUBLIC "-//W3C//DTD SVG 1.1//EN" "http://www.w3.org/Graphics/SVG/1.1/DTD/svg11.dtd"><svg class="icon" width="48px" height="48.00px" viewBox="0 0 1024 1024" version="1.1" xmlns="http://www.w3.org/2000/svg"><path d="M170.666667 938.666667a128 128 0 0 1-128-128V384a128 128 0 0 1 128-128h128V213.333333a128 128 0 0 1 120.490666-127.786666L426.666667 85.333333h170.666666a128 128 0 0 1 127.786667 120.490667L725.333333 213.333333v42.666667h128a128 128 0 0 1 127.786667 120.490667L981.333333 384v426.666667a128 128 0 0 1-128 128zM298.666667 341.333333H170.666667a42.666667 42.666667 0 0 0-42.666667 42.666667v426.666667a42.666667 42.666667 0 0 0 42.666667 42.666666h128V341.333333z m341.333333 0H384v512h256V341.333333z m213.333333 0h-128v512h128a42.666667 42.666667 0 0 0 42.368-37.674666L896 810.666667V384a42.666667 42.666667 0 0 0-42.666667-42.666667z m-256-170.666666h-170.666666a42.666667 42.666667 0 0 0-42.368 37.674666L384 213.333333v42.666667h256V213.333333a42.666667 42.666667 0 0 0-37.674667-42.368L597.333333 170.666667z" /></svg>
