<?xml version="1.0" standalone="no"?><!DOCTYPE svg PUBLIC "-//W3C//DTD SVG 1.1//EN" "http://www.w3.org/Graphics/SVG/1.1/DTD/svg11.dtd"><svg class="icon" width="48px" height="48.00px" viewBox="0 0 1024 1024" version="1.1" xmlns="http://www.w3.org/2000/svg"><path d="M302.933333 42.666667H175.36a128.085333 128.085333 0 0 0-127.402667 139.52 887.68 887.68 0 0 0 137.685334 389.290666 874.24 874.24 0 0 0 268.928 268.8 886.613333 886.613333 0 0 0 386.474666 137.386667A128 128 0 0 0 981.333333 849.749333V721.92c1.578667-63.914667-45.738667-119.765333-110.08-128.853333a506.112 506.112 0 0 1-110.933333-27.605334l-8.32-2.773333a128 128 0 0 0-126.634667 31.573333l-30.762666 30.72-5.077334-3.157333a640 640 0 0 1-187.306666-187.349333l-3.242667-5.12 30.549333-30.549334a128.085333 128.085333 0 0 0 29.013334-135.210666A504.96 504.96 0 0 1 430.933333 153.173333a128.128 128.128 0 0 0-128-110.506666zM175.402667 128H303.786667a42.666667 42.666667 0 0 1 42.666666 36.693333c5.76 43.776 16.554667 87.125333 32.128 128.853334a42.666667 42.666667 0 0 1-9.557333 45.098666L315.008 392.661333a42.666667 42.666667 0 0 0-6.912 51.242667 725.333333 725.333333 0 0 0 272 272 42.666667 42.666667 0 0 0 51.242667-6.912l54.186666-54.186667a42.581333 42.581333 0 0 1 44.842667-9.386666c41.813333 15.573333 85.162667 26.368 129.322667 32.170666 21.077333 2.986667 36.864 21.632 36.309333 43.264v129.066667a42.752 42.752 0 0 1-46.506667 42.837333 801.024 801.024 0 0 1-348.842666-124.288 789.802667 789.802667 0 0 1-243.2-243.072 802.133333 802.133333 0 0 1-124.586667-351.573333A42.666667 42.666667 0 0 1 175.402667 128z" fill="#ffffff" /></svg>
