<?xml version="1.0" standalone="no"?><!DOCTYPE svg PUBLIC "-//W3C//DTD SVG 1.1//EN" "http://www.w3.org/Graphics/SVG/1.1/DTD/svg11.dtd"><svg class="icon" width="48px" height="48.00px" viewBox="0 0 1024 1024" version="1.1" xmlns="http://www.w3.org/2000/svg"><path d="M380.458667 103.68A42.666667 42.666667 0 0 1 358.4 159.872 384 384 0 1 0 865.664 661.333333a42.666667 42.666667 0 0 1 78.592 33.194667A469.333333 469.333333 0 1 1 324.266667 81.621333a42.666667 42.666667 0 0 1 56.192 22.058667zM512 42.666667a469.333333 469.333333 0 0 1 469.333333 469.333333 42.666667 42.666667 0 0 1-42.666666 42.666667H512a42.666667 42.666667 0 0 1-42.666667-42.666667V85.333333a42.666667 42.666667 0 0 1 42.666667-42.666666z m42.666667 87.722666V469.333333h338.901333l-1.194667-9.984A384 384 0 0 0 792.746667 250.026667l-9.216-9.557334a384 384 0 0 0-218.88-108.842666L554.666667 130.389333z" fill="#ffffff" /></svg>
