<?xml version="1.0" standalone="no"?><!DOCTYPE svg PUBLIC "-//W3C//DTD SVG 1.1//EN" "http://www.w3.org/Graphics/SVG/1.1/DTD/svg11.dtd"><svg class="icon" width="48px" height="48.00px" viewBox="0 0 1024 1024" version="1.1" xmlns="http://www.w3.org/2000/svg"><path  d="M640 42.666667a85.333333 85.333333 0 0 1 85.333333 85.333333h42.666667a128 128 0 0 1 127.786667 120.490667L896 256v597.333333a128 128 0 0 1-120.490667 127.786667L768 981.333333H256a128 128 0 0 1-127.786667-120.490666L128 853.333333V256a128 128 0 0 1 120.490667-127.786667L256 128h42.666667a85.333333 85.333333 0 0 1 85.333333-85.333333z m85.333333 170.666666a85.333333 85.333333 0 0 1-85.333333 85.333334H384a85.333333 85.333333 0 0 1-85.333333-85.333334H256a42.666667 42.666667 0 0 0-42.368 37.674667L213.333333 256v597.333333a42.666667 42.666667 0 0 0 37.674667 42.368L256 896h512a42.666667 42.666667 0 0 0 42.368-37.674667L810.666667 853.333333V256a42.666667 42.666667 0 0 0-37.674667-42.368L768 213.333333z m-85.333333-85.333333H384v85.333333h256V128z" fill="#ffffff" /></svg>
