<?xml version="1.0" standalone="no"?><!DOCTYPE svg PUBLIC "-//W3C//DTD SVG 1.1//EN" "http://www.w3.org/Graphics/SVG/1.1/DTD/svg11.dtd"><svg class="icon" width="48px" height="48.00px" viewBox="0 0 1024 1024" version="1.1" xmlns="http://www.w3.org/2000/svg"><path  d="M448 59.904a127.914667 127.914667 0 0 1 127.829333-0.085333L874.666667 230.570667c15.957333 9.216 29.482667 21.589333 39.893333 36.096a43.477333 43.477333 0 0 1 10.666667 17.493333c8.661333 17.493333 13.44 36.992 13.44 57.173333v341.376a128.085333 128.085333 0 0 1-64.170667 110.805334L576 964.096a128 128 0 0 1-43.818667 15.573333 42.496 42.496 0 0 1-40.405333 0 127.530667 127.530667 0 0 1-43.605333-15.488L149.333333 793.429333A128 128 0 0 1 85.333333 682.666667V341.290667c0-20.053333 4.736-39.509333 13.397334-56.874667a42.837333 42.837333 0 0 1 10.709333-17.749333c10.410667-14.506667 23.893333-26.88 39.893333-36.096l138.88-79.36a42.666667 42.666667 0 0 1 23.466667-13.44zM170.624 364.245333L170.666667 682.624c0 15.232 8.106667 29.312 21.162666 36.821333L469.333333 878.037333v-341.034666l-298.709333-172.8z m682.666667 0L554.666667 537.002667v340.906666l277.333333-158.378666a42.666667 42.666667 0 0 0 21.034667-31.872L853.333333 682.666667l-0.042666-318.421334zM322.133333 230.101333L214.997333 291.328 512 463.104l106.922667-61.866667L322.133333 230.101333z m211.2-96.298666a42.752 42.752 0 0 0-42.837333 0.085333L407.936 181.077333l296.277333 170.837334 104.746667-60.586667z" fill="#ffffff" /></svg>
