<?xml version="1.0" standalone="no"?><!DOCTYPE svg PUBLIC "-//W3C//DTD SVG 1.1//EN" "http://www.w3.org/Graphics/SVG/1.1/DTD/svg11.dtd"><svg class="icon" width="48px" height="48.00px" viewBox="0 0 1024 1024" version="1.1" xmlns="http://www.w3.org/2000/svg"><path d="M384 853.333333a85.333333 85.333333 0 1 1 0 170.666667 85.333333 85.333333 0 0 1 0-170.666667z m469.333333 0a85.333333 85.333333 0 1 1 0 170.666667 85.333333 85.333333 0 0 1 0-170.666667zM213.333333 42.666667a42.666667 42.666667 0 0 1 40.533334 29.44l1.28 4.864L290.986667 256H981.333333a42.666667 42.666667 0 0 1 42.581334 45.738667l-0.682667 4.906666-68.309333 358.314667a127.872 127.872 0 0 1-119.594667 102.954667L827.733333 768H413.866667a128 128 0 0 1-126.293334-95.488l-1.706666-7.509333L178.346667 128H42.666667a42.666667 42.666667 0 0 1-42.368-37.674667L0 85.333333a42.666667 42.666667 0 0 1 37.674667-42.368L42.666667 42.666667h170.666666z m716.373334 298.666666H308.053333l61.44 306.986667c3.712 18.602667 19.157333 32.298667 38.229334 34.133333L413.013333 682.666667h415.573334a42.666667 42.666667 0 0 0 41.301333-29.141334l1.28-4.864L929.706667 341.333333z" fill="#ffffff" /></svg>
