<?xml version="1.0" standalone="no"?><!DOCTYPE svg PUBLIC "-//W3C//DTD SVG 1.1//EN" "http://www.w3.org/Graphics/SVG/1.1/DTD/svg11.dtd"><svg class="icon" width="48px" height="48.00px" viewBox="0 0 1024 1024" version="1.1" xmlns="http://www.w3.org/2000/svg"><path d="M682.666667 42.666667a42.666667 42.666667 0 0 1 42.368 37.674666L725.333333 85.333333v42.666667h85.333334a128 128 0 0 1 127.786666 120.490667L938.666667 256v597.333333a128 128 0 0 1-128 128H213.333333a128 128 0 0 1-128-128V256a128 128 0 0 1 128-128h85.333334V85.333333a42.666667 42.666667 0 0 1 85.034666-4.992L384 85.333333v42.666667h256V85.333333a42.666667 42.666667 0 0 1 42.666667-42.666666z m170.666666 426.666666H170.666667v384a42.666667 42.666667 0 0 0 37.674666 42.368L213.333333 896h597.333334a42.666667 42.666667 0 0 0 42.666666-42.666667v-384zM298.666667 213.333333H213.333333a42.666667 42.666667 0 0 0-42.666666 42.666667v128h682.666666V256a42.666667 42.666667 0 0 0-37.674666-42.368L810.666667 213.333333h-85.333334v42.666667a42.666667 42.666667 0 0 1-85.034666 4.992L640 256V213.333333H384v42.666667a42.666667 42.666667 0 0 1-85.034667 4.992L298.666667 256V213.333333z" fill="#ffffff" /></svg>
