<svg width="14" height="14" viewBox="0 0 14 14" fill="none" xmlns="http://www.w3.org/2000/svg">
<path d="M2.33332 8.74984H3.49999V11.6665H10.5V2.33317H3.49999V5.24984H2.33332V1.74984C2.33332 1.59513 2.39478 1.44675 2.50418 1.33736C2.61357 1.22796 2.76195 1.1665 2.91666 1.1665H11.0833C11.238 1.1665 11.3864 1.22796 11.4958 1.33736C11.6052 1.44675 11.6667 1.59513 11.6667 1.74984V12.2498C11.6667 12.4045 11.6052 12.5529 11.4958 12.6623C11.3864 12.7717 11.238 12.8332 11.0833 12.8332H2.91666C2.76195 12.8332 2.61357 12.7717 2.50418 12.6623C2.39478 12.5529 2.33332 12.4045 2.33332 12.2498V8.74984ZM5.83332 6.4165V4.6665L8.74999 6.99984L5.83332 9.33317V7.58317H1.16666V6.4165H5.83332Z" fill="black" fill-opacity="0.65"/>
</svg>
