<svg width="46" height="10" viewBox="0 0 46 10" fill="none" xmlns="http://www.w3.org/2000/svg">
<path d="M1.98179 1.75102H1.86179V9.57502C1.86179 9.75902 1.70179 9.85102 1.38179 9.85102C1.06179 9.85102 0.901787 9.75902 0.901787 9.57502V1.81102C0.901787 1.45902 0.941787 1.22302 1.02179 1.10302C1.10979 0.975015 1.30979 0.911016 1.62179 0.911016H1.88579C2.44579 0.911016 2.82179 0.975015 3.01379 1.10302C3.20579 1.23102 3.36579 1.55102 3.49379 2.06301L5.05379 8.36302C5.12579 8.65102 5.19379 8.83102 5.25779 8.90302C5.32179 8.97502 5.48179 9.01102 5.73779 9.01102H5.85779V1.18702C5.85779 1.00302 6.01779 0.911016 6.33779 0.911016C6.65779 0.911016 6.81779 1.00302 6.81779 1.18702V8.95102C6.81779 9.30302 6.77379 9.54302 6.68579 9.67102C6.60579 9.79102 6.40979 9.85102 6.09779 9.85102H5.83379C5.27379 9.85102 4.89779 9.78702 4.70579 9.65902C4.51379 9.53102 4.35379 9.21102 4.22579 8.69902L2.66579 2.39901C2.59379 2.11102 2.52579 1.93102 2.46179 1.85902C2.39779 1.78702 2.23779 1.75102 1.98179 1.75102ZM13.5725 8.19502V4.18702C13.5725 3.56302 13.0245 3.25102 11.9285 3.25102C10.8405 3.25102 10.2965 3.56302 10.2965 4.18702V8.19502C10.2965 8.81902 10.8405 9.13102 11.9285 9.13102C13.0245 9.13102 13.5725 8.81902 13.5725 8.19502ZM14.5325 4.30702V8.07502C14.5325 8.73902 14.2965 9.22302 13.8245 9.52702C13.3525 9.82302 12.7245 9.97102 11.9405 9.97102C11.1565 9.97102 10.5245 9.82302 10.0445 9.52702C9.57247 9.22302 9.33647 8.73902 9.33647 8.07502V4.30702C9.33647 3.64302 9.57247 3.16302 10.0445 2.86702C10.5165 2.56302 11.1445 2.41102 11.9285 2.41102C12.7125 2.41102 13.3405 2.56302 13.8125 2.86702C14.2925 3.16302 14.5325 3.64302 14.5325 4.30702ZM17.8902 2.50701V8.19502C17.8902 8.81902 18.4742 9.13102 19.6422 9.13102C20.8182 9.13102 21.4062 8.81902 21.4062 8.19502V7.33102C21.4062 7.14702 21.5662 7.05502 21.8862 7.05502C22.2062 7.05502 22.3662 7.14702 22.3662 7.33102V8.07502C22.3662 9.33902 21.4742 9.97102 19.6902 9.97102C18.8582 9.97102 18.1902 9.82302 17.6862 9.52702C17.1822 9.22302 16.9302 8.73902 16.9302 8.07502V2.62702C16.9302 1.96302 17.1822 1.48302 17.6862 1.18702C18.1902 0.883015 18.8582 0.731015 19.6902 0.731015C21.4742 0.731015 22.3662 1.36302 22.3662 2.62702V3.37102C22.3662 3.55502 22.2062 3.64702 21.8862 3.64702C21.5662 3.64702 21.4062 3.55502 21.4062 3.37102V2.50701C21.4062 1.88301 20.8182 1.57101 19.6422 1.57101C18.4742 1.57101 17.8902 1.88301 17.8902 2.50701ZM28.76 8.19502V4.18702C28.76 3.56302 28.212 3.25102 27.116 3.25102C26.028 3.25102 25.484 3.56302 25.484 4.18702V8.19502C25.484 8.81902 26.028 9.13102 27.116 9.13102C28.212 9.13102 28.76 8.81902 28.76 8.19502ZM29.72 4.30702V8.07502C29.72 8.73902 29.484 9.22302 29.012 9.52702C28.54 9.82302 27.912 9.97102 27.128 9.97102C26.344 9.97102 25.712 9.82302 25.232 9.52702C24.76 9.22302 24.524 8.73902 24.524 8.07502V4.30702C24.524 3.64302 24.76 3.16302 25.232 2.86702C25.704 2.56302 26.332 2.41102 27.116 2.41102C27.9 2.41102 28.528 2.56302 29 2.86702C29.48 3.16302 29.72 3.64302 29.72 4.30702ZM37.3137 0.467016V8.07502C37.3137 8.73902 37.0777 9.22302 36.6057 9.52702C36.1337 9.82302 35.5057 9.97102 34.7217 9.97102C33.9377 9.97102 33.3057 9.82302 32.8257 9.52702C32.3537 9.22302 32.1177 8.73902 32.1177 8.07502V4.48702C32.1177 3.82302 32.3537 3.34302 32.8257 3.04702C33.2977 2.74302 33.9257 2.59102 34.7097 2.59102H35.7537C35.9137 2.59102 35.9937 2.73102 35.9937 3.01102C35.9937 3.29102 35.9137 3.43102 35.7537 3.43102H34.7097C33.6217 3.43102 33.0777 3.74302 33.0777 4.36702V8.19502C33.0777 8.81902 33.6217 9.13102 34.7097 9.13102C35.8057 9.13102 36.3537 8.81902 36.3537 8.19502V0.467016C36.3537 0.283015 36.5137 0.191015 36.8337 0.191015C37.1537 0.191015 37.3137 0.283015 37.3137 0.467016ZM45.0847 4.28302V4.64302C45.0847 5.32302 44.9447 5.79102 44.6647 6.04702C44.3847 6.30302 43.8727 6.46702 43.1287 6.53902L40.7887 6.76702V8.19502C40.7887 8.81902 41.3087 9.13102 42.3487 9.13102C43.5327 9.13102 44.1247 8.85902 44.1247 8.31502V7.85902C44.1247 7.67502 44.2847 7.58302 44.6047 7.58302C44.9247 7.58302 45.0847 7.67502 45.0847 7.85902V8.19502C45.0847 9.37902 44.2047 9.97102 42.4447 9.97102C41.6687 9.97102 41.0367 9.81902 40.5487 9.51502C40.0687 9.21102 39.8287 8.73102 39.8287 8.07502V4.30702C39.8287 3.64302 40.0847 3.16302 40.5967 2.86702C41.1087 2.56302 41.7767 2.41102 42.6007 2.41102C43.4247 2.41102 44.0447 2.55502 44.4607 2.84301C44.8767 3.13102 45.0847 3.61102 45.0847 4.28302ZM40.7887 4.18702V5.92702L43.0447 5.69902C43.5007 5.65102 43.7927 5.55502 43.9207 5.41102C44.0567 5.26702 44.1247 5.01102 44.1247 4.64302V4.18702C44.1247 3.56302 43.5687 3.25102 42.4567 3.25102C41.3447 3.25102 40.7887 3.56302 40.7887 4.18702Z" fill="black" fill-opacity="0.65"/>
</svg>
