<svg width="14" height="14" viewBox="0 0 14 14" fill="none" xmlns="http://www.w3.org/2000/svg">
<path d="M11.6667 5.25H6.41667C5.77233 5.25 5.25 5.77233 5.25 6.41667V11.6667C5.25 12.311 5.77233 12.8333 6.41667 12.8333H11.6667C12.311 12.8333 12.8333 12.311 12.8333 11.6667V6.41667C12.8333 5.77233 12.311 5.25 11.6667 5.25Z" stroke="#606266" stroke-linecap="round" stroke-linejoin="round"/>
<path d="M2.91663 8.75H2.33329C2.02387 8.75 1.72713 8.62708 1.50833 8.40829C1.28954 8.1895 1.16663 7.89275 1.16663 7.58333V2.33333C1.16663 2.02391 1.28954 1.72717 1.50833 1.50837C1.72713 1.28958 2.02387 1.16666 2.33329 1.16666H7.58329C7.89271 1.16666 8.18946 1.28958 8.40825 1.50837C8.62704 1.72717 8.74996 2.02391 8.74996 2.33333V2.91666" stroke="#606266" stroke-linecap="round" stroke-linejoin="round"/>
</svg>
