<?xml version="1.0" standalone="no"?>
<!DOCTYPE svg PUBLIC "-//W3C//DTD SVG 1.1//EN" "http://www.w3.org/Graphics/SVG/1.1/DTD/svg11.dtd" >
<!--
2013-9-30: Created.
-->
<svg>
<metadata>
Created by iconfont
</metadata>
<defs>

<font id="reminx_icon" horiz-adv-x="1024" >
  <font-face
    font-family="reminx_icon"
    font-weight="500"
    font-stretch="normal"
    units-per-em="1024"
    ascent="896"
    descent="-128"
  />
    <missing-glyph />
    
    <glyph glyph-name="unlock" unicode="&#58894;" d="M640 725.333333H213.333333v-682.666666h597.333334V554.666667h-170.666667V725.333333zM128 768.341333C128 791.722667 147.072 810.666667 170.624 810.666667H682.666667l213.333333-213.333334v-597.034666A42.666667 42.666667 0 0 0 853.632-42.666667H170.368A42.666667 42.666667 0 0 0 128-0.341333V768.341333zM512 426.666667h213.333333v-213.333334H384v213.333334H256v42.666666a128 128 0 1 0 256 0v-42.666666z m-85.333333 0v42.666666a42.666667 42.666667 0 0 1-85.333334 0v-42.666666h85.333334z"  horiz-adv-x="1024" />

    
    <glyph glyph-name="functions1" unicode="&#59049;" d="M213.333333 128l327.68 256L213.333333 640V725.333333h597.333334v-85.333333H352.512L682.666667 384 352.512 128H810.666667v-85.333333h-597.333334V128z"  horiz-adv-x="1024" />

    
    <glyph glyph-name="ri-book-2-line" unicode="&#59050;" d="M853.333333 128H213.333333a42.666667 42.666667 0 1 1 0-85.333333H853.333333v-85.333334H213.333333A128 128 0 0 0 85.333333 85.333333V725.333333a85.333333 85.333333 0 0 0 85.333334 85.333334h682.666666v-682.666667z m-682.666666 83.2A106.666667 106.666667 0 0 0 192 213.333333H768V725.333333H170.666667v-514.133333zM597.333333 512H341.333333v85.333333h256v-85.333333z"  horiz-adv-x="1024" />

    
    <glyph glyph-name="guanlianxuanxiang" unicode="&#59048;" d="M810.666667 469.333333H298.666667c-23.466667 0-42.666667-19.2-42.666667-42.666666v-256c0-23.466667 19.2-42.666667 42.666667-42.666667h512c23.466667 0 42.666667 19.2 42.666666 42.666667v256c0 23.466667-19.2 42.666667-42.666666 42.666666z m0-277.333333c0-12.8-8.533333-21.333333-21.333334-21.333333h-469.333333c-12.8 0-21.333333 8.533333-21.333333 21.333333v213.333333c0 12.8 8.533333 21.333333 21.333333 21.333334h469.333333c12.8 0 21.333333-8.533333 21.333334-21.333334v-213.333333zM640 341.333333h150.186667l-75.093334-81.92L640 341.333333zM213.333333 640h512c23.466667 0 42.666667-19.2 42.666667-42.666667v-128h-42.666667V576c0 12.8-8.533333 21.333333-21.333333 21.333333h-469.333333c-12.8 0-21.333333-8.533333-21.333334-21.333333v-213.333333c0-12.8 8.533333-21.333333 21.333334-21.333334H256v-42.666666H213.333333c-23.466667 0-42.666667 19.2-42.666666 42.666666V597.333333c0 23.466667 19.2 42.666667 42.666666 42.666667z"  horiz-adv-x="1024" />

    
    <glyph glyph-name="custombtn_archive-line" unicode="&#58993;" d="M128 469.333333H85.333333V725.205333C85.333333 748.842667 104.746667 768 127.658667 768h768.682666A42.24 42.24 0 0 0 938.666667 725.205333V469.333333h-42.666667v-426.709333a42.496 42.496 0 0 0-42.368-42.624H170.368A42.496 42.496 0 0 0 128 42.624V469.333333z m682.666667 0H213.333333v-384h597.333334v384zM170.666667 682.666667v-128h682.666666V682.666667H170.666667z m213.333333-298.666667h256v-85.333333H384v85.333333z"  horiz-adv-x="1024" />

    
    <glyph glyph-name="custombtn_alarm-line" unicode="&#58994;" d="M512-42.666667a384 384 0 1 0 0 768 384 384 0 0 0 0-768z m0 85.333334a298.666667 298.666667 0 1 1 0 597.333333 298.666667 298.666667 0 0 1 0-597.333333z m42.666667 298.666666h128v-85.333333h-213.333334V554.666667h85.333334v-213.333334zM74.538667 627.968l150.826666 150.826667 60.373334-60.330667L134.826667 567.594667 74.538667 627.968z m724.053333 150.826667l150.869333-150.826667-60.330666-60.373333-150.869334 150.869333 60.373334 60.330667z"  horiz-adv-x="1024" />

    
    <glyph glyph-name="custombtn_add-line" unicode="&#58995;" d="M469.333333 426.666667V682.666667h85.333334v-256h256v-85.333334h-256v-256h-85.333334v256H213.333333v85.333334z"  horiz-adv-x="1024" />

    
    <glyph glyph-name="custombtn_bookmark-line" unicode="&#58996;" d="M213.333333 810.666667h597.333334a42.666667 42.666667 0 0 0 42.666666-42.666667v-816.768a21.333333 21.333333 0 0 0-32.682666-18.090667L512 126.72l-308.650667-193.536A21.333333 21.333333 0 0 0 170.666667-48.768V768a42.666667 42.666667 0 0 0 42.666666 42.666667z m554.666667-85.333334H256v-658.432l256 160.469334 256-160.469334V725.333333z"  horiz-adv-x="1024" />

    
    <glyph glyph-name="custombtn_base-station-line" unicode="&#58997;" d="M512 341.333333l256-384H256l256 384z m0-153.6L415.573333 42.666667h192.853334L512 187.733333z m-45.226667 257.706667a64 64 0 1 0 90.453334 90.453333 64 64 0 0 0-90.453334-90.453333zM225.322667 777.258667l60.373333-60.373334a320 320 0 0 1 0-452.522666l-60.373333-60.373334a405.333333 405.333333 0 0 0 0 573.269334z m573.269333 0a405.333333 405.333333 0 0 0 0-573.269334l-60.373333 60.373334a320 320 0 0 1 0 452.522666l60.373333 60.373334zM346.026667 656.597333l60.330666-60.330666a149.333333 149.333333 0 0 1 0-211.2L346.026667 324.736a234.666667 234.666667 0 0 0 0 331.861333z m331.861333 0a234.666667 234.666667 0 0 0 0-331.861333l-60.330667 60.330667a149.333333 149.333333 0 0 1 0 211.2l60.330667 60.330666z"  horiz-adv-x="1024" />

    
    <glyph glyph-name="custombtn_close-line" unicode="&#58998;" d="M512 444.330667l211.2 211.2 60.330667-60.330667-211.2-211.2 211.2-211.2-60.330667-60.330667-211.2 211.2-211.2-211.2-60.330667 60.330667 211.2 211.2-211.2 211.2L300.8 655.530667z"  horiz-adv-x="1024" />

    
    <glyph glyph-name="custombtn_delete-bin-5-line" unicode="&#58999;" d="M170.666667 554.666667h682.666666v-554.666667a42.666667 42.666667 0 0 0-42.666666-42.666667H213.333333a42.666667 42.666667 0 0 0-42.666666 42.666667V554.666667z m85.333333-85.333334v-426.666666h512V469.333333H256z m128-85.333333h85.333333v-256H384v256z m170.666667 0h85.333333v-256h-85.333333v256zM298.666667 682.666667V768a42.666667 42.666667 0 0 0 42.666666 42.666667h341.333334a42.666667 42.666667 0 0 0 42.666666-42.666667v-85.333333h213.333334v-85.333334H85.333333V682.666667h213.333334z m85.333333 42.666666v-42.666666h256V725.333333H384z"  horiz-adv-x="1024" />

    
    <glyph glyph-name="custombtn_check-line" unicode="&#59000;" d="M426.666667 248.661333l392.192 392.234667 60.373333-60.330667L426.666667 128l-271.530667 271.530667 60.330667 60.330666z"  horiz-adv-x="1024" />

    
    <glyph glyph-name="custombtn_code-s-line" unicode="&#59001;" d="M1024 384l-241.365333-241.365333-60.330667 60.330666L903.338667 384l-181.034667 181.034667 60.330667 60.330666L1024 384zM120.661333 384l181.034667-181.034667-60.330667-60.330666L0 384l241.365333 241.365333L301.653333 565.034667 120.661333 384z"  horiz-adv-x="1024" />

    
    <glyph glyph-name="custombtn_download-2-line" unicode="&#59002;" d="M554.666667 469.333333h213.333333l-256-256-256 256h213.333333V768h85.333334v-298.666667z m-384-384h682.666666v298.666667h85.333334v-341.333333a42.666667 42.666667 0 0 0-42.666667-42.666667H128a42.666667 42.666667 0 0 0-42.666667 42.666667v341.333333h85.333334v-298.666667z"  horiz-adv-x="1024" />

    
    <glyph glyph-name="custombtn_exchange-box-line" unicode="&#59003;" d="M170.666667 682.666667v-597.333334h682.666666V682.666667H170.666667zM128 768h768a42.666667 42.666667 0 0 0 42.666667-42.666667v-682.666666a42.666667 42.666667 0 0 0-42.666667-42.666667H128a42.666667 42.666667 0 0 0-42.666667 42.666667V725.333333a42.666667 42.666667 0 0 0 42.666667 42.666667z m384-256V640l213.333333-213.333333H341.333333V512h170.666667z m-213.333333-170.666667h384v-85.333333h-170.666667v-128l-213.333333 213.333333z"  horiz-adv-x="1024" />

    
    <glyph glyph-name="custombtn_download-cloud-2-line" unicode="&#59004;" d="M554.666667 341.333333v-238.293333l77.994666 77.994667 60.373334-60.373334L512-60.330667l-181.034667 180.992 60.373334 60.373334L469.333333 103.04V341.333333h85.333334zM512 810.666667a298.709333 298.709333 0 0 0 296.704-264.277334 234.666667 234.666667 0 0 0-40.661333-460.117333v85.930667a149.333333 149.333333 0 1 1-47.445334 294.826666 213.333333 213.333333 0 1 1-417.152 0 149.333333 149.333333 0 0 1-55.125333-293.546666l7.68-1.28v-85.930667a234.666667 234.666667 0 0 0-40.704 460.117333A298.666667 298.666667 0 0 0 512 810.666667z"  horiz-adv-x="1024" />

    
    <glyph glyph-name="custombtn_flag-line" unicode="&#59005;" d="M213.333333 213.333333v-256H128V768h400.298667a42.666667 42.666667 0 0 0 38.144-23.594667L597.333333 682.666667h256a42.666667 42.666667 0 0 0 42.666667-42.666667v-469.333333a42.666667 42.666667 0 0 0-42.666667-42.666667h-272.298666a42.666667 42.666667 0 0 0-38.144 23.594667L512 213.333333H213.333333zM213.333333 682.666667v-384h351.402667l42.666667-85.333334H810.666667V597.333333h-266.069334l-42.666666 85.333334H213.333333z"  horiz-adv-x="1024" />

    
    <glyph glyph-name="custombtn_folder-line" unicode="&#59006;" d="M170.666667 682.666667v-597.333334h682.666666V597.333333h-358.997333l-85.333333 85.333334H170.666667z m358.997333 0H896a42.666667 42.666667 0 0 0 42.666667-42.666667v-597.333333a42.666667 42.666667 0 0 0-42.666667-42.666667H128a42.666667 42.666667 0 0 0-42.666667 42.666667V725.333333a42.666667 42.666667 0 0 0 42.666667 42.666667h316.330667l85.333333-85.333333z"  horiz-adv-x="1024" />

    
    <glyph glyph-name="custombtn_computer-line" unicode="&#59007;" d="M170.666667 213.333333h682.666666V682.666667H170.666667v-469.333334z m384-85.333333v-85.333333h170.666666v-85.333334H298.666667v85.333334h170.666666v85.333333H127.658667A42.581333 42.581333 0 0 0 85.333333 170.965333V725.034667C85.333333 748.757333 104.746667 768 127.658667 768h768.682666c23.381333 0 42.325333-19.157333 42.325334-42.965333v-554.069334c0-23.722667-19.413333-42.965333-42.325334-42.965333H554.666667z"  horiz-adv-x="1024" />

    
    <glyph glyph-name="custombtn_home-2-line" unicode="&#59008;" d="M810.666667 0H213.333333a42.666667 42.666667 0 0 0-42.666666 42.666667v384H42.666667l440.618666 400.554666a42.666667 42.666667 0 0 0 57.429334 0L981.333333 426.666667h-128v-384a42.666667 42.666667 0 0 0-42.666666-42.666667zM256 85.333333h512V505.301333l-256 232.704-256-232.704V85.333333z"  horiz-adv-x="1024" />

    
    <glyph glyph-name="custombtn_keynote-line" unicode="&#59009;" d="M189.44 469.333333h645.12l-51.2 256H240.64l-51.2-256zM554.666667 384v-341.333333h170.666666v-85.333334H298.666667v85.333334h170.666666v341.333333H127.658667c-23.381333 0-38.656 18.346667-34.005334 41.685333l68.693334 343.296C166.954667 792.021333 189.653333 810.666667 213.333333 810.666667h597.248c23.594667 0 46.378667-18.346667 51.029334-41.685334l68.693333-343.296c4.608-23.04-11.093333-41.685333-34.005333-41.685333H554.666667z"  horiz-adv-x="1024" />

    
    <glyph glyph-name="custombtn_edit-box-line" unicode="&#59010;" d="M714.965333 768l-85.333333-85.333333H213.333333v-597.333334h597.333334V501.632l85.333333 85.333333V42.666667a42.666667 42.666667 0 0 0-42.666667-42.666667H170.666667a42.666667 42.666667 0 0 0-42.666667 42.666667V725.333333a42.666667 42.666667 0 0 0 42.666667 42.666667h544.298666z m159.061334 38.4L934.4 745.984l-392.192-392.192-60.245333-0.128-0.085334 60.458667L874.026667 806.4z"  horiz-adv-x="1024" />

    
    <glyph glyph-name="custombtn_bus-line" unicode="&#59011;" d="M725.333333 42.666667H298.666667v-42.666667a42.666667 42.666667 0 0 0-42.666667-42.666667H213.333333a42.666667 42.666667 0 0 0-42.666666 42.666667v42.666667H128v341.333333H85.333333V554.666667h42.666667V682.666667a85.333333 85.333333 0 0 0 85.333333 85.333333h597.333334a85.333333 85.333333 0 0 0 85.333333-85.333333v-128h42.666667v-170.666667h-42.666667v-341.333333h-42.666667v-42.666667a42.666667 42.666667 0 0 0-42.666666-42.666667h-42.666667a42.666667 42.666667 0 0 0-42.666667 42.666667v42.666667z m85.333334 341.333333V682.666667H213.333333v-298.666667h597.333334z m0-85.333333H213.333333v-170.666667h597.333334v170.666667zM256 256h170.666667v-85.333333H256v85.333333z m341.333333 0h170.666667v-85.333333h-170.666667v85.333333z"  horiz-adv-x="1024" />

    
    <glyph glyph-name="custombtn_information-line" unicode="&#59012;" d="M512-42.666667C276.352-42.666667 85.333333 148.352 85.333333 384S276.352 810.666667 512 810.666667s426.666667-191.018667 426.666667-426.666667-191.018667-426.666667-426.666667-426.666667z m0 85.333334a341.333333 341.333333 0 1 1 0 682.666666 341.333333 341.333333 0 0 1 0-682.666666zM469.333333 597.333333h85.333334v-85.333333h-85.333334V597.333333z m0-170.666666h85.333334v-256h-85.333334v256z"  horiz-adv-x="1024" />

    
    <glyph glyph-name="custombtn_file-line" unicode="&#59013;" d="M384 810.538667V810.666667h469.248C876.8 810.666667 896 791.253333 896 768.341333v-768.682666a42.368 42.368 0 0 0-42.368-42.325334H170.368A42.666667 42.666667 0 0 0 128 0.298667V554.666667l256 255.872zM248.746667 554.666667H384V689.92L248.746667 554.666667zM469.333333 725.333333v-213.333333a42.666667 42.666667 0 0 0-42.666666-42.666667H213.333333v-426.666666h597.333334V725.333333h-341.333334z"  horiz-adv-x="1024" />

    
    <glyph glyph-name="custombtn_mail-add-line" unicode="&#59014;" d="M938.666667 341.333333h-85.333334V587.178667l-338.261333-302.933334L170.666667 588.117333V85.333333h426.666666v-85.333333H128a42.666667 42.666667 0 0 0-42.666667 42.666667V725.333333a42.666667 42.666667 0 0 0 42.666667 42.666667h768a42.666667 42.666667 0 0 0 42.666667-42.666667v-384zM192.469333 682.666667l322.133334-284.245334L832.085333 682.666667H192.469333zM896 128h128v-85.333333h-128v-128h-85.333333v128h-128v85.333333h128v128h85.333333v-128z"  horiz-adv-x="1024" />

    
    <glyph glyph-name="custombtn_mail-line" unicode="&#59015;" d="M128 768h768a42.666667 42.666667 0 0 0 42.666667-42.666667v-682.666666a42.666667 42.666667 0 0 0-42.666667-42.666667H128a42.666667 42.666667 0 0 0-42.666667 42.666667V725.333333a42.666667 42.666667 0 0 0 42.666667 42.666667z m725.333333-180.821333l-338.261333-302.933334L170.666667 588.117333V85.333333h682.666666V587.178667zM192.469333 682.666667l322.133334-284.245334L832.085333 682.666667H192.469333z"  horiz-adv-x="1024" />

    
    <glyph glyph-name="custombtn_eye-off-line" unicode="&#59016;" d="M762.965333 72.661333A467.157333 467.157333 0 0 0 512 0c-230.058667 0-421.461333 165.546667-461.610667 384a468.565333 468.565333 0 0 0 142.506667 258.816L59.392 776.192l60.373333 60.373333 844.757334-844.8-60.373334-60.330666-141.226666 141.226666zM253.226667 582.4A382.506667 382.506667 0 0 1 137.514667 384a384.213333 384.213333 0 0 1 563.242666-249.088l-86.528 86.528A192 192 0 0 0 349.44 486.229333L253.226667 582.4z m297.770666-297.728l-138.325333 138.325333a106.666667 106.666667 0 0 1 138.282667-138.282666z m336.768-96.597333l-61.056 61.013333A381.226667 381.226667 0 0 1 886.485333 384 384.213333 384.213333 0 0 1 407.552 668.245333L340.224 735.573333C393.429333 756.48 451.413333 768 512 768c230.058667 0 421.461333-165.546667 461.610667-384a467.072 467.072 0 0 0-85.845334-195.925333z m-387.584 387.584a192 192 0 0 0 203.477334-203.477334l-203.52 203.477334z"  horiz-adv-x="1024" />

    
    <glyph glyph-name="custombtn_mail-send-line" unicode="&#59017;" d="M938.666667 42.368a42.666667 42.666667 0 0 0-42.325334-42.368H127.658667A42.368 42.368 0 0 0 85.333333 42.368V85.333333h768V584.533333l-341.333333-307.2-426.666667 384V725.333333a42.666667 42.666667 0 0 0 42.666667 42.666667h768a42.666667 42.666667 0 0 0 42.666667-42.666667v-682.965333zM189.184 682.666667L512 392.106667 834.816 682.666667H189.184zM0 256h341.333333v-85.333333H0v85.333333z m0 213.333333h213.333333v-85.333333H0v85.333333z"  horiz-adv-x="1024" />

    
    <glyph glyph-name="custombtn_map-pin-line" unicode="&#59018;" d="M512 4.266667l211.2 211.2a298.666667 298.666667 0 1 1-422.4 0L512 4.266667z m0-120.661334l-271.530667 271.530667a384 384 0 1 0 543.061334 0L512-116.394667zM512 341.333333a85.333333 85.333333 0 1 1 0 170.666667 85.333333 85.333333 0 0 1 0-170.666667z m0-85.333333a170.666667 170.666667 0 1 0 0 341.333333 170.666667 170.666667 0 0 0 0-341.333333z"  horiz-adv-x="1024" />

    
    <glyph glyph-name="custombtn_eye-line" unicode="&#59019;" d="M512 768c230.058667 0 421.461333-165.546667 461.610667-384-40.106667-218.453333-231.552-384-461.610667-384-230.058667 0-421.461333 165.546667-461.610667 384C90.496 602.453333 281.941333 768 512 768z m0-682.666667a384.213333 384.213333 0 0 1 374.485333 298.666667 384.213333 384.213333 0 0 1-748.970666 0A384.213333 384.213333 0 0 1 512 85.333333z m0 106.666667a192 192 0 1 0 0 384 192 192 0 0 0 0-384z m0 85.333333a106.666667 106.666667 0 1 1 0 213.333334 106.666667 106.666667 0 0 1 0-213.333334z"  horiz-adv-x="1024" />

    
    <glyph glyph-name="custombtn_lock-unlock-line" unicode="&#59020;" d="M298.666667 469.333333h554.666666a42.666667 42.666667 0 0 0 42.666667-42.666666v-426.666667a42.666667 42.666667 0 0 0-42.666667-42.666667H170.666667a42.666667 42.666667 0 0 0-42.666667 42.666667V426.666667a42.666667 42.666667 0 0 0 42.666667 42.666666h42.666666V512a298.666667 298.666667 0 0 0 565.845334 133.589333l-76.330667-38.144A213.333333 213.333333 0 0 1 298.666667 512v-42.666667z m-85.333334-85.333333v-341.333333h597.333334v341.333333H213.333333z m213.333334-128h170.666666v-85.333333h-170.666666v85.333333z"  horiz-adv-x="1024" />

    
    <glyph glyph-name="custombtn_plane-line" unicode="&#59021;" d="M597.333333 514.261333L938.666667 298.666667v-85.333334l-341.333334 107.776v-228.693333l128-71.082667V-42.666667l-192 42.666667L341.333333-42.666667v64l128 71.125334v228.693333L128 213.333333v85.333334l341.333333 215.594666V746.666667a64 64 0 0 0 128 0v-232.405334z"  horiz-adv-x="1024" />

    
    <glyph glyph-name="custombtn_lock-line" unicode="&#59022;" d="M810.666667 469.333333h42.666666a42.666667 42.666667 0 0 0 42.666667-42.666666v-426.666667a42.666667 42.666667 0 0 0-42.666667-42.666667H170.666667a42.666667 42.666667 0 0 0-42.666667 42.666667V426.666667a42.666667 42.666667 0 0 0 42.666667 42.666666h42.666666V512a298.666667 298.666667 0 1 0 597.333334 0v-42.666667zM213.333333 384v-341.333333h597.333334v341.333333H213.333333z m256-85.333333h85.333334v-170.666667h-85.333334v170.666667z m256 170.666666V512A213.333333 213.333333 0 0 1 298.666667 512v-42.666667h426.666666z"  horiz-adv-x="1024" />

    
    <glyph glyph-name="custombtn_line-chart-line" unicode="&#59023;" d="M213.333333 768v-682.666667h682.666667v-85.333333H128V768h85.333333z m652.501334-140.501333l60.330666-60.330667L682.666667 323.669333l-128 127.957334-183.168-183.125334-60.330667 60.330667L554.666667 572.330667l128-127.957334 183.168 183.125334z"  horiz-adv-x="1024" />

    
    <glyph glyph-name="custombtn_global-line" unicode="&#59024;" d="M512-42.666667C276.352-42.666667 85.333333 148.352 85.333333 384S276.352 810.666667 512 810.666667s426.666667-191.018667 426.666667-426.666667-191.018667-426.666667-426.666667-426.666667z m-97.706667 99.541334A763.733333 763.733333 0 0 0 342.485333 341.333333H173.312a341.674667 341.674667 0 0 1 240.981333-284.458666zM427.946667 341.333333c6.442667-104.064 36.181333-201.813333 84.053333-288.085333A678.613333 678.613333 0 0 1 596.053333 341.333333h-168.106666z m422.741333 0h-169.173333a763.733333 763.733333 0 0 0-71.808-284.458666A341.674667 341.674667 0 0 1 850.688 341.333333zM173.312 426.666667h169.173333A763.733333 763.733333 0 0 0 414.293333 711.125333 341.674667 341.674667 0 0 1 173.312 426.666667z m254.677333 0h168.021334A678.613333 678.613333 0 0 1 512 714.752 678.613333 678.613333 0 0 1 427.946667 426.666667z m181.717334 284.458666A763.733333 763.733333 0 0 0 681.514667 426.666667h169.173333a341.674667 341.674667 0 0 1-240.981333 284.458666z"  horiz-adv-x="1024" />

    
    <glyph glyph-name="custombtn_message-3-line" unicode="&#59025;" d="M85.333333 512.256A255.573333 255.573333 0 0 0 341.333333 768h341.333334c141.354667 0 256-114.986667 256-255.744V0H341.333333c-141.354667 0-256 114.986667-256 255.744V512.256zM853.333333 85.333333V512.256A170.837333 170.837333 0 0 1 682.666667 682.666667H341.333333a170.24 170.24 0 0 1-170.666666-170.410667v-256.512A170.837333 170.837333 0 0 1 341.333333 85.333333h512z m-256 341.333334h85.333334v-85.333334h-85.333334v85.333334z m-256 0h85.333334v-85.333334H341.333333v85.333334z"  horiz-adv-x="1024" />

    
    <glyph glyph-name="custombtn_pie-chart-line" unicode="&#59026;" d="M512-42.666667C276.352-42.666667 85.333333 148.352 85.333333 384c0 191.061333 125.568 352.768 298.666667 407.125333v-90.624A341.461333 341.461333 0 0 1 512 42.666667a341.461333 341.461333 0 0 1 316.501333 213.333333h90.624c-54.357333-173.098667-216.064-298.666667-407.125333-298.666667z m424.533333 384H469.333333V808.533333c14.037333 1.408 28.288 2.133333 42.666667 2.133334 235.648 0 426.666667-191.018667 426.666667-426.666667 0-14.378667-0.725333-28.629333-2.133334-42.666667zM554.666667 722.688V426.666667h296.021333A341.504 341.504 0 0 1 554.666667 722.688z"  horiz-adv-x="1024" />

    
    <glyph glyph-name="custombtn_mic-line" unicode="&#59027;" d="M512 768a128 128 0 0 1-128-128v-170.666667a128 128 0 0 1 256 0V640a128 128 0 0 1-128 128z m0 85.333333a213.333333 213.333333 0 0 0 213.333333-213.333333v-170.666667a213.333333 213.333333 0 0 0-426.666666 0V640a213.333333 213.333333 0 0 0 213.333333 213.333333zM130.346667 426.666667H216.32a298.752 298.752 0 0 1 591.274667 0h86.016A384.170667 384.170667 0 0 0 554.666667 87.68V-85.333333h-85.333334v173.013333A384.170667 384.170667 0 0 0 130.346667 426.666667z"  horiz-adv-x="1024" />

    
    <glyph glyph-name="custombtn_play-circle-line" unicode="&#59028;" d="M512-42.666667C276.352-42.666667 85.333333 148.352 85.333333 384S276.352 810.666667 512 810.666667s426.666667-191.018667 426.666667-426.666667-191.018667-426.666667-426.666667-426.666667z m0 85.333334a341.333333 341.333333 0 1 1 0 682.666666 341.333333 341.333333 0 0 1 0-682.666666zM453.205333 536.96l208.170667-138.752a17.066667 17.066667 0 0 0 0-28.416l-208.213333-138.752a17.066667 17.066667 0 0 0-26.496 14.165333V522.794667a17.066667 17.066667 0 0 0 26.538666 14.165333z"  horiz-adv-x="1024" />

    
    <glyph glyph-name="custombtn_printer-line" unicode="&#59029;" d="M256 85.333333H128a42.666667 42.666667 0 0 0-42.666667 42.666667V554.666667a42.666667 42.666667 0 0 0 42.666667 42.666666h128V768a42.666667 42.666667 0 0 0 42.666667 42.666667h426.666666a42.666667 42.666667 0 0 0 42.666667-42.666667v-170.666667h128a42.666667 42.666667 0 0 0 42.666667-42.666666v-426.666667a42.666667 42.666667 0 0 0-42.666667-42.666667h-128v-85.333333a42.666667 42.666667 0 0 0-42.666667-42.666667H298.666667a42.666667 42.666667 0 0 0-42.666667 42.666667v85.333333z m0 85.333334v42.666666a42.666667 42.666667 0 0 0 42.666667 42.666667h426.666666a42.666667 42.666667 0 0 0 42.666667-42.666667v-42.666666h85.333333V512H170.666667v-341.333333h85.333333zM341.333333 725.333333v-128h341.333334V725.333333H341.333333z m0-554.666666v-128h341.333334v128H341.333333z m-128 298.666666h128v-85.333333H213.333333v85.333333z"  horiz-adv-x="1024" />

    
    <glyph glyph-name="custombtn_qr-scan-2-line" unicode="&#59030;" d="M640 768h256v-213.333333h-85.333333V682.666667h-170.666667V768zM384 768v-85.333333H213.333333v-128H128V768h256z m256-768v85.333333h170.666667v128h85.333333v-213.333333h-256z m-256 0H128v213.333333h85.333333v-128h170.666667v-85.333333zM128 426.666667h768v-85.333334H128v85.333334z"  horiz-adv-x="1024" />

    
    <glyph glyph-name="custombtn_profile-line" unicode="&#59031;" d="M85.333333 725.632A42.666667 42.666667 0 0 0 127.658667 768h768.682666c23.381333 0 42.325333-18.986667 42.325334-42.368v-683.264a42.666667 42.666667 0 0 0-42.325334-42.368H127.658667A42.368 42.368 0 0 0 85.333333 42.368V725.632zM170.666667 682.666667v-597.333334h682.666666V682.666667H170.666667z m85.333333-85.333334h256v-256H256V597.333333z m85.333333-85.333333v-85.333333h85.333334V512H341.333333z m-85.333333-256h512v-85.333333H256v85.333333z m341.333333 341.333333h170.666667v-85.333333h-170.666667V597.333333z m0-170.666666h170.666667v-85.333334h-170.666667v85.333334z"  horiz-adv-x="1024" />

    
    <glyph glyph-name="custombtn_pushpin-line" unicode="&#59032;" d="M589.994667 824.064l362.069333-362.069333-60.373333-60.330667-30.165334 30.165333-180.992-180.992-30.165333-150.869333-60.373333-60.330667-180.992 181.034667-211.2-211.2-60.330667 60.330667 211.2 211.2-181.034667 180.992 60.330667 60.373333L378.88 552.533333l180.992 180.992-30.165333 30.165334 60.330666 60.373333z m30.208-150.869333l-199.296-199.253334-120.405334-24.106666 277.333334-277.333334 24.064 120.405334 199.296 199.253333-180.992 181.034667z"  horiz-adv-x="1024" />

    
    <glyph glyph-name="custombtn_reply-line" unicode="&#59033;" d="M469.333333 42.666667L42.666667 384l426.666666 341.333333v-213.333333c235.648 0 426.666667-191.018667 426.666667-426.666667 0-11.648-0.426667-23.168-1.365333-34.56a384.128 384.128 0 0 1-326.613334 205.013334L554.666667 256h-85.333334v-213.333333z m-85.333333 298.666666h172.117333l14.805334-0.298666c54.826667-1.834667 107.690667-13.226667 156.842666-32.682667A340.650667 340.650667 0 0 1 469.333333 426.666667H384V547.797333L179.285333 384 384 220.202667V341.333333z"  horiz-adv-x="1024" />

    
    <glyph glyph-name="custombtn_save-line" unicode="&#59034;" d="M298.666667 85.333333v256h426.666666v-256h85.333334V562.005333L690.005333 682.666667H213.333333v-597.333334h85.333334zM170.666667 768h554.666666l170.666667-170.666667v-554.666666a42.666667 42.666667 0 0 0-42.666667-42.666667H170.666667a42.666667 42.666667 0 0 0-42.666667 42.666667V725.333333a42.666667 42.666667 0 0 0 42.666667 42.666667z m213.333333-512v-170.666667h256v170.666667H384z"  horiz-adv-x="1024" />

    
    <glyph glyph-name="custombtn_share-forward-box-line" unicode="&#59035;" d="M384 768v-85.333333H170.666667v-597.333334h682.666666v384h85.333334v-426.666666a42.666667 42.666667 0 0 0-42.666667-42.666667H128a42.666667 42.666667 0 0 0-42.666667 42.666667V725.333333a42.666667 42.666667 0 0 0 42.666667 42.666667h256z m424.533333-85.333333L682.666667 808.533333 742.997333 868.864l227.84-227.84A25.6 25.6 0 0 0 952.746667 597.333333H597.333333a85.333333 85.333333 0 0 1-85.333333-85.333333v-256h-85.333333V512a170.666667 170.666667 0 0 0 170.666666 170.666667h211.2z"  horiz-adv-x="1024" />

    
    <glyph glyph-name="custombtn_settings-3-line" unicode="&#59036;" d="M142.506667 170.666667a427.434667 427.434667 0 0 0-41.728 99.242666 128 128 0 0 1 0.085333 228.138667A426.24 426.24 0 0 0 207.573333 683.093333a128 128 0 0 1 197.589334 114.090667 426.24 426.24 0 0 0 213.632-0.085333 128 128 0 0 1 197.632-114.005334A426.24 426.24 0 0 0 881.493333 597.333333c18.474667-31.957333 32.298667-65.28 41.728-99.242666a128 128 0 0 1-0.085333-228.138667 426.24 426.24 0 0 0-106.709333-185.045333 128 128 0 0 1-197.589334-114.090667 426.24 426.24 0 0 0-213.632 0.085333 128 128 0 0 1-197.632 114.005334A427.434667 427.434667 0 0 0 142.506667 170.666667z m241.493333-8.362667a213.034667 213.034667 0 0 0 96-118.186667c21.290667-2.005333 42.666667-2.048 63.957333-0.042666A213.034667 213.034667 0 0 0 640 162.261333a213.034667 213.034667 0 0 0 150.4 24.106667c12.373333 17.408 23.04 35.968 31.914667 55.381333A213.034667 213.034667 0 0 0 768 384c0 53.76 20.053333 103.978667 54.314667 142.250667a346.709333 346.709333 0 0 1-32 55.381333A213.034667 213.034667 0 0 0 640 605.696a213.034667 213.034667 0 0 0-96 118.186667c-21.290667 2.005333-42.666667 2.048-63.957333 0.042666A213.034667 213.034667 0 0 0 384 605.738667a213.034667 213.034667 0 0 0-150.4-24.106667 340.906667 340.906667 0 0 1-31.914667-55.381333A213.034667 213.034667 0 0 0 256 384a212.906667 212.906667 0 0 0-54.314667-142.250667 346.709333 346.709333 0 0 1 32-55.381333A213.034667 213.034667 0 0 0 384 162.304zM512 256a128 128 0 1 0 0 256 128 128 0 0 0 0-256z m0 85.333333a42.666667 42.666667 0 1 1 0 85.333334 42.666667 42.666667 0 0 1 0-85.333334z"  horiz-adv-x="1024" />

    
    <glyph glyph-name="custombtn_ship-line" unicode="&#59037;" d="M170.666667 452.266667V725.333333a42.666667 42.666667 0 0 0 42.666666 42.666667h213.333334V853.333333h170.666666v-85.333333h213.333334a42.666667 42.666667 0 0 0 42.666666-42.666667v-273.066666l46.336-13.909334a42.666667 42.666667 0 0 0 29.098667-51.2l-64.682667-258.901333a212.992 212.992 0 0 0-81.152 11.605333l53.333334 228.352L512 469.333333l-324.266667-101.12 53.333334-228.309333a212.992 212.992 0 0 0-81.152-11.648l-64.682667 258.901333a42.666667 42.666667 0 0 0 29.098667 51.2L170.666667 452.266667z m85.333333 25.6L512 554.666667l256-76.8V682.666667H256v-204.8zM170.666667 42.666667a255.061333 255.061333 0 0 1 170.666666 65.194666A255.061333 255.061333 0 0 1 512 42.666667a255.061333 255.061333 0 0 1 170.666667 65.194666A255.061333 255.061333 0 0 1 853.333333 42.666667h85.333334v-85.333334h-85.333334a339.754667 339.754667 0 0 0-170.666666 45.653334A339.754667 339.754667 0 0 0 512-42.666667a339.754667 339.754667 0 0 0-170.666667 45.653334A339.754667 339.754667 0 0 0 170.666667-42.666667H85.333333v85.333334h85.333334z"  horiz-adv-x="1024" />

    
    <glyph glyph-name="custombtn_shuffle-line" unicode="&#59038;" d="M768 132.992V213.333333l213.333333-128-213.333333-128v89.173334a384 384 0 0 0-298.538667 228.906666L469.333333 275.626667l-0.128-0.256A384 384 0 0 0 116.266667 42.666667H85.333333v85.333333h30.933334a298.666667 298.666667 0 0 1 274.517333 181.034667L422.912 384l-32.128 74.965333A298.666667 298.666667 0 0 1 116.266667 640H85.333333V725.333333h30.933334a384 384 0 0 0 352.938666-232.746666L469.333333 492.373333l0.128 0.256A384 384 0 0 0 768 721.493333V810.666667l213.333333-128-213.333333-128V635.008a298.666667 298.666667 0 0 1-220.117333-176.042667L515.754667 384l32.128-74.965333A298.666667 298.666667 0 0 1 768 132.992z"  horiz-adv-x="1024" />

    
    <glyph glyph-name="custombtn_shopping-cart-line" unicode="&#59039;" d="M170.666667 213.333333V725.333333H85.333333V810.666667h128a42.666667 42.666667 0 0 0 42.666667-42.666667v-512h530.688l85.333333 341.333333H341.333333V682.666667h585.386667a42.666667 42.666667 0 0 0 41.386667-53.034667l-106.666667-426.666667a42.666667 42.666667 0 0 0-41.386667-32.298666H213.333333a42.666667 42.666667 0 0 0-42.666666 42.666666z m85.333333-298.666666a85.333333 85.333333 0 1 0 0 170.666666 85.333333 85.333333 0 0 0 0-170.666666z m512 0a85.333333 85.333333 0 1 0 0 170.666666 85.333333 85.333333 0 0 0 0-170.666666z"  horiz-adv-x="1024" />

    
    <glyph glyph-name="custombtn_subway-line" unicode="&#59040;" d="M733.866667 42.666667l76.8-64v-21.333334H213.333333v21.333334L290.133333 42.666667H213.333333a85.333333 85.333333 0 0 0-85.333333 85.333333V597.333333a170.666667 170.666667 0 0 0 170.666667 170.666667h426.666666a170.666667 170.666667 0 0 0 170.666667-170.666667v-469.333333a85.333333 85.333333 0 0 0-85.333333-85.333333h-76.8zM554.666667 682.666667v-256h256V597.333333a85.333333 85.333333 0 0 1-85.333334 85.333334h-170.666666z m-85.333334 0H298.666667a85.333333 85.333333 0 0 1-85.333334-85.333334v-170.666666h256V682.666667z m341.333334-341.333334H213.333333v-213.333333h597.333334v213.333333zM320 170.666667a64 64 0 1 0 0 128 64 64 0 0 0 0-128z m384 0a64 64 0 1 0 0 128 64 64 0 0 0 0-128z"  horiz-adv-x="1024" />

    
    <glyph glyph-name="custombtn_shut-down-line" unicode="&#59041;" d="M267.306667 733.568l48.938666-69.930667a341.333333 341.333333 0 1 1 391.509334 0l48.938666 69.930667A426.154667 426.154667 0 0 0 938.666667 384c0-235.648-191.018667-426.666667-426.666667-426.666667S85.333333 148.352 85.333333 384a426.154667 426.154667 0 0 0 181.973334 349.568zM469.333333 384V810.666667h85.333334v-426.666667h-85.333334z"  horiz-adv-x="1024" />

    
    <glyph glyph-name="custombtn_upload-2-line" unicode="&#59042;" d="M170.666667 85.333333h682.666666v298.666667h85.333334v-341.333333a42.666667 42.666667 0 0 0-42.666667-42.666667H128a42.666667 42.666667 0 0 0-42.666667 42.666667v341.333333h85.333334v-298.666667z m384 426.666667v-298.666667h-85.333334V512H256l256 256 256-256h-213.333333z"  horiz-adv-x="1024" />

    
    <glyph glyph-name="custombtn_star-line" unicode="&#59044;" d="M512 116.906667l-300.928-168.448 67.2 338.261333L25.045333 520.874667l342.485334 40.618666L512 874.666667l144.469333-313.173334 342.485334-40.618666-253.226667-234.154667 67.2-338.261333L512 116.906667z m0 97.792l181.205333-101.418667-40.490666 203.648 152.448 141.013333-206.208 24.448L512 670.933333l-86.954667-188.586666-206.208-24.405334 152.448-141.013333-40.490666-203.648L512 214.698667z"  horiz-adv-x="1024" />

    
    <glyph glyph-name="custombtn_sound-module-line" unicode="&#59045;" d="M896 128v-128h-85.333333v128h-85.333334v85.333333h256v-85.333333h-85.333333zM213.333333 128v-128H128v128H42.666667v85.333333h256v-85.333333H213.333333z m256 512V768h85.333334v-128h85.333333v-85.333333H384V640h85.333333z m0-170.666667h85.333334v-469.333333h-85.333334V469.333333z m-341.333333-170.666666V768h85.333333v-469.333333H128z m682.666667 0V768h85.333333v-469.333333h-85.333333z"  horiz-adv-x="1024" />

    
    <glyph glyph-name="custombtn_upload-cloud-2-line" unicode="&#59046;" d="M512 358.997333l181.034667-180.992-60.373334-60.373333L554.666667 195.626667V-42.666667h-85.333334v238.378667l-77.994666-78.08-60.373334 60.373333L512 358.997333zM512 810.666667a298.709333 298.709333 0 0 0 296.704-264.277334 234.666667 234.666667 0 0 0-40.661333-460.117333v85.930667a149.333333 149.333333 0 1 1-47.445334 294.826666 213.333333 213.333333 0 1 1-417.152 0 149.333333 149.333333 0 0 1-55.125333-293.546666l7.68-1.28v-85.930667a234.666667 234.666667 0 0 0-40.704 460.117333A298.666667 298.666667 0 0 0 512 810.666667z"  horiz-adv-x="1024" />

    
    <glyph glyph-name="custombtn_car-line" unicode="&#59047;" d="M810.666667 42.666667H213.333333v-42.666667a42.666667 42.666667 0 0 0-42.666666-42.666667H128a42.666667 42.666667 0 0 0-42.666667 42.666667V426.666667l105.813334 246.954666A85.333333 85.333333 0 0 0 269.653333 725.333333h484.693334a85.333333 85.333333 0 0 0 78.421333-51.712L938.666667 426.666667v-426.666667a42.666667 42.666667 0 0 0-42.666667-42.666667h-42.666667a42.666667 42.666667 0 0 0-42.666666 42.666667v42.666667z m42.666666 298.666666H170.666667v-213.333333h682.666666v213.333333zM178.176 426.666667h667.648l-91.434667 213.333333H269.653333l-91.434666-213.333333zM277.333333 170.666667a64 64 0 1 0 0 128 64 64 0 0 0 0-128z m469.333334 0a64 64 0 1 0 0 128 64 64 0 0 0 0-128z"  horiz-adv-x="1024" />

    
    <glyph glyph-name="workflow_data_add" unicode="&#58893;" d="M640 725.333333H213.333333v-682.666666h597.333334V554.666667h-170.666667V725.333333zM128 768.341333C128 791.722667 147.072 810.666667 170.624 810.666667H682.666667l213.333333-213.333334v-597.034666A42.666667 42.666667 0 0 0 853.632-42.66666699999996H170.368A42.666667 42.666667 0 0 0 128-0.34133299999996325V768.341333zM469.333333 426.666667V554.666667h85.333334v-128h128v-85.333334h-128v-128h-85.333334v128H341.333333v85.333334h128z"  horiz-adv-x="1024" />

    
    <glyph glyph-name="workflow_data_delete" unicode="&#58889;" d="M213.333333 725.333333h426.666667v-170.666666h170.666667v-512H213.333333V725.333333zM170.624 810.666667A42.453333 42.453333 0 0 1 128 768.341333v-768.682666a42.666667 42.666667 0 0 1 42.368-42.325334h683.264A42.666667 42.666667 0 0 1 896 0.298667V597.333333l-213.333333 213.333334H170.624z m409.472-434.432l75.434667 75.434666L595.2 512l-75.434667-75.434667L444.330667 512 384 451.669333l75.434667-75.434666L384 300.8l60.330667-60.330667 75.434666 75.434667 75.434667-75.434667 60.330667 60.330667-75.434667 75.434667z"  horiz-adv-x="1024" />

    
    <glyph glyph-name="workflow_data_edit" unicode="&#58890;" d="M221.525333 607.701333l85.333334-85.333333V725.333333h384v-213.333333h213.333333v-469.333333h-597.333333v117.632l-85.333334 85.333333v-245.973333a42.368 42.368 0 0 1 42.368-42.325334h683.264a42.666667 42.666667 0 0 1 42.368 42.965334V554.666667l-256.128 256H264.277333c-23.552 0-42.752-19.413333-42.752-42.325334v-160.64z m-33.194666-87.466666L128 459.861333 459.861333 128l60.416 0.085333-0.085333 60.245334-331.861333 331.904z"  horiz-adv-x="1024" />

    
    <glyph glyph-name="ri-file-lock-line" unicode="&#58891;" d="M640 725.333333H213.333333v-682.666666h597.333334V554.666667h-170.666667V725.333333zM128 768.341333C128 791.722667 147.072 810.666667 170.624 810.666667H682.666667l213.333333-213.333334v-597.034666A42.666667 42.666667 0 0 0 853.632-42.666667H170.368A42.666667 42.666667 0 0 0 128-0.341333V768.341333zM640 426.666667h42.666667v-213.333334H341.333333v213.333334h42.666667v42.666666a128 128 0 1 0 256 0v-42.666666z m-85.333333 0v42.666666a42.666667 42.666667 0 0 1-85.333334 0v-42.666666h85.333334z"  horiz-adv-x="1024" />

    
    <glyph glyph-name="ri-indeterminate-circle-line" unicode="&#58892;" d="M512-42.666667C276.352-42.666667 85.333333 148.352 85.333333 384S276.352 810.666667 512 810.666667s426.666667-191.018667 426.666667-426.666667-191.018667-426.666667-426.666667-426.666667z m0 85.333334a341.333333 341.333333 0 1 1 0 682.709333A341.333333 341.333333 0 0 1 512 42.666667z m-213.333333 384h426.666666v-85.333334H298.666667v85.333334z"  horiz-adv-x="1024" />

    
    <glyph glyph-name="list" unicode="&#58987;" d="M320 661.333333A21.333333 21.333333 0 0 0 341.333333 682.666667h554.666667a21.333333 21.333333 0 0 0 0-42.666667H341.333333a21.333333 21.333333 0 0 0-21.333333 21.333333zM320 405.333333A21.333333 21.333333 0 0 0 341.333333 426.666667h554.666667a21.333333 21.333333 0 0 0 0-42.666667H341.333333a21.333333 21.333333 0 0 0-21.333333 21.333333zM320 149.333333A21.333333 21.333333 0 0 0 341.333333 170.666667h554.666667a21.333333 21.333333 0 0 0 0-42.666667H341.333333a21.333333 21.333333 0 0 0-21.333333 21.333333zM128 682.666667h42.666667v-42.666667H128zM128 426.666667h42.666667v-42.666667H128zM128 170.666667h42.666667v-42.666667H128z"  horiz-adv-x="1024" />

    
    <glyph glyph-name="rich_text" unicode="&#58988;" d="M490.666667 21.333333a21.333333 21.333333 0 0 0 21.333333 21.333334h384a21.333333 21.333333 0 0 0 0-42.666667h-384a21.333333 21.333333 0 0 0-21.333333 21.333333zM768 751.829333c-18.346667 0-35.925333-7.253333-48.896-20.266666L189.866667 202.410667l-32.597334-130.432 130.432 32.597333L816.896 633.770667A69.205333 69.205333 0 0 1 768 751.786667z m-79.104 9.941334a111.829333 111.829333 0 1 0 158.208-158.208l-533.333333-533.333334a21.333333 21.333333 0 0 0-9.941334-5.589333l-170.666666-42.666667a21.333333 21.333333 0 0 0-25.856 25.856l42.666666 170.666667a21.333333 21.333333 0 0 0 5.589334 9.941333l533.333333 533.333334z"  horiz-adv-x="1024" />

    
    <glyph glyph-name="member" unicode="&#58989;" d="M234.666667 597.333333a149.333333 149.333333 0 1 0 298.666666 0 149.333333 149.333333 0 0 0-298.666666 0zM384 789.333333a192 192 0 1 1 0-384 192 192 0 0 1 0 384z m-160-512a176.426667 176.426667 0 0 1-128.682667-56.746666A197.973333 197.973333 0 0 1 42.666667 85.333333v-85.333333a21.333333 21.333333 0 0 1 42.666666 0v85.333333c0 40.021333 14.933333 78.165333 41.088 106.069334A133.802667 133.802667 0 0 0 224 234.666667h320c36.309333 0 71.466667-15.36 97.578667-43.264A155.306667 155.306667 0 0 0 682.666667 85.333333v-85.333333a21.333333 21.333333 0 0 1 42.666666 0v85.333333c0 50.474667-18.773333 99.157333-52.650666 135.253334a176.426667 176.426667 0 0 1-128.682667 56.746666h-320z m587.349333-21.546666a21.333333 21.333333 0 0 0 25.984 15.36A192 192 0 0 0 981.333333 85.333333v-85.333333a21.333333 21.333333 0 0 0-42.666666 0v85.333333a149.333333 149.333333 0 0 1-112 144.469334 21.333333 21.333333 0 0 0-15.36 25.984z m-144.725333 527.36a21.333333 21.333333 0 1 1-10.581333-41.386667 149.333333 149.333333 0 0 0 0-289.28 21.333333 21.333333 0 0 1 10.581333-41.386667 192 192 0 0 1 0 372.053334z"  horiz-adv-x="1024" />

    
    <glyph glyph-name="step" unicode="&#58990;" d="M463.104 783.104a21.333333 21.333333 0 0 0 0-30.208L371.498667 661.333333l91.605333-91.562666a21.333333 21.333333 0 0 0-30.208-30.208l-106.666667 106.666666a21.333333 21.333333 0 0 0 0 30.208l106.666667 106.666667a21.333333 21.333333 0 0 0 30.208 0zM603.562667-15.104a21.333333 21.333333 0 0 0 0 30.208l91.605333 91.562667-91.605333 91.562666a21.333333 21.333333 0 0 0 30.208 30.208l106.666666-106.666666a21.333333 21.333333 0 0 0 0-30.208l-106.666666-106.666667a21.333333 21.333333 0 0 0-30.208 0zM576 661.333333a21.333333 21.333333 0 0 0-21.333333-21.333333H341.333333a21.333333 21.333333 0 0 0 0 42.666667h213.333334a21.333333 21.333333 0 0 0 21.333333-21.333334zM490.666667 106.666667a21.333333 21.333333 0 0 0 21.333333 21.333333h213.333333a21.333333 21.333333 0 0 0 0-42.666667h-213.333333a21.333333 21.333333 0 0 0-21.333333 21.333334zM789.333333 341.333333a64 64 0 0 0 64-64V170.666667a21.333333 21.333333 0 0 0-42.666666 0v106.666666a21.333333 21.333333 0 0 1-21.333334 21.333334h-554.666666a21.333333 21.333333 0 0 1-21.333334-21.333334V170.666667a21.333333 21.333333 0 0 0-42.666666 0v106.666666A64 64 0 0 0 234.666667 341.333333h554.666666zM789.333333 426.666667A64 64 0 0 1 853.333333 490.666667V597.333333a21.333333 21.333333 0 0 1-42.666666 0v-106.666666a21.333333 21.333333 0 0 0-21.333334-21.333334h-554.666666a21.333333 21.333333 0 0 0-21.333334 21.333334V597.333333a21.333333 21.333333 0 0 1-42.666666 0v-106.666666A64 64 0 0 1 234.666667 426.666667h554.666666z"  horiz-adv-x="1024" />

    
    <glyph glyph-name="switch" unicode="&#58991;" d="M682.666667 682.666667a298.666667 298.666667 0 1 0 0-597.333334H341.333333A298.666667 298.666667 0 1 0 341.333333 682.666667h341.333334z m0-42.666667H341.333333a256 256 0 1 1 0-512h341.333334a256 256 0 0 1 0 512z m0-85.333333a170.666667 170.666667 0 1 0 0-341.333334 170.666667 170.666667 0 0 0 0 341.333334z m0-42.666667a128 128 0 1 1 0-256 128 128 0 0 1 0 256z"  horiz-adv-x="1024" />

    
    <glyph glyph-name="html" unicode="&#58992;" d="M554.666667 853.333333a42.666667 42.666667 0 0 0 30.165333-12.501333l298.666667-298.666667A42.666667 42.666667 0 0 0 896 512v-469.333333a128 128 0 0 0-128-128H256a128 128 0 0 0-128 128V725.333333a128 128 0 0 0 128 128h298.666667z m-42.368-42.666666H256a85.333333 85.333333 0 0 1-85.333333-85.333334v-682.666666a85.333333 85.333333 0 0 1 85.333333-85.333334h512a85.333333 85.333333 0 0 1 85.333333 85.333334l0.042667 426.794666a21.589333 21.589333 0 0 0-2.389333-0.128H533.333333a21.333333 21.333333 0 0 0-21.333333 21.333334V807.210667L512.298667 810.666667zM399.104 271.104a21.333333 21.333333 0 0 0 0-30.208L328.832 170.666667l70.272-70.229334a21.333333 21.333333 0 0 0-30.208-30.208l-85.333333 85.333334a21.333333 21.333333 0 0 0 0 30.208l85.333333 85.333333a21.333333 21.333333 0 0 0 30.208 0z m170.666667 0l85.333333-85.333333a21.333333 21.333333 0 0 0 0-30.208l-85.333333-85.333334a21.333333 21.333333 0 0 0-30.208 30.208L609.834667 170.666667l-70.272 70.229333a21.333333 21.333333 0 0 0 30.208 30.208zM554.666667 810.666667c-0.085333-1.109333 0-2.261333 0-3.456V512h296.32l2.346666-0.213333V512l-298.666666 298.666667z"  horiz-adv-x="1024" />

    
    <glyph glyph-name="attachment" unicode="&#58985;" d="M673.28 815.445333c-39.637333 0-77.653333-15.744-105.642667-43.776l-392.106666-392.106666a234.794667 234.794667 0 1 1 332.032-332.032l392.106666 392.106666a21.333333 21.333333 0 1 0 30.208-30.208l-392.106666-392.106666a277.461333 277.461333 0 0 0-392.448 392.448l392.106666 392.106666a192.085333 192.085333 0 1 0 271.701334-271.701333l-392.533334-392.106667a106.752 106.752 0 0 0-150.954666 150.954667l362.24 361.813333a21.333333 21.333333 0 1 0 30.165333-30.208l-362.24-361.813333a64.042667 64.042667 0 1 1 90.581333-90.538667l392.533334 392.106667a149.418667 149.418667 0 0 1-105.642667 255.061333z"  horiz-adv-x="1024" />

    
    <glyph glyph-name="image" unicode="&#58986;" d="M810.666667 725.333333H213.333333a42.666667 42.666667 0 0 1-42.666666-42.666666v-597.333334a42.666667 42.666667 0 0 1 42.666666-42.666666h597.333334a42.666667 42.666667 0 0 1 42.666666 42.666666V682.666667a42.666667 42.666667 0 0 1-42.666666 42.666666zM213.333333 768h597.333334a85.333333 85.333333 0 0 0 85.333333-85.333333v-597.333334a85.333333 85.333333 0 0 0-85.333333-85.333333H213.333333a85.333333 85.333333 0 0 0-85.333333 85.333333V682.666667a85.333333 85.333333 0 0 0 85.333333 85.333333zM469.333333 533.333333a106.666667 106.666667 0 1 1-213.333333 0 106.666667 106.666667 0 0 1 213.333333 0z m-42.666666 0a64 64 0 1 0-128 0 64 64 0 0 0 128 0zM852.096 239.530667L896 256l-213.333333 213.333333L213.333333 0l96.554667 36.224L682.666667 409.002667l169.429333-169.472z"  horiz-adv-x="1024" />

    
    <glyph glyph-name="guanli" unicode="&#59043;" d="M384 896H85.333333C38.4 896 0 857.6 0 810.666667v-298.666667c0-46.933333 38.4-85.333333 85.333333-85.333333h298.666667c46.933333 0 85.333333 38.4 85.333333 85.333333V810.666667c0 46.933333-38.4 85.333333-85.333333 85.333333z m0-384H85.333333V810.666667h298.666667v-298.666667z m0-42.666667v42.666667-42.666667zM938.666667 896H640c-46.933333 0-85.333333-38.4-85.333333-85.333333v-298.666667c0-46.933333 38.4-85.333333 85.333333-85.333333h298.666667c46.933333 0 85.333333 38.4 85.333333 85.333333V810.666667c0 46.933333-38.4 85.333333-85.333333 85.333333z m0-384H640V810.666667h298.666667v-298.666667zM384 341.333333H85.333333c-46.933333 0-85.333333-38.4-85.333333-85.333333v-298.666667c0-46.933333 38.4-85.333333 85.333333-85.333333h298.666667c46.933333 0 85.333333 38.4 85.333333 85.333333V256c0 46.933333-38.4 85.333333-85.333333 85.333333z m0-384H85.333333V256h298.666667v-298.666667z m0-42.666666v42.666666-42.666666zM938.666667 341.333333H640c-46.933333 0-85.333333-38.4-85.333333-85.333333v-298.666667c0-46.933333 38.4-85.333333 85.333333-85.333333h298.666667c46.933333 0 85.333333 38.4 85.333333 85.333333V256c0 46.933333-38.4 85.333333-85.333333 85.333333z m0-384H640V256h298.666667v-298.666667z"  horiz-adv-x="1024" />

    
    <glyph glyph-name="menu_computer" unicode="&#58971;" d="M170.666667 213.333333h682.666666V682.666667H170.666667v-469.333334z m384-85.333333v-85.333333h170.666666v-85.333334H298.666667v85.333334h170.666666v85.333333H127.658667A42.581333 42.581333 0 0 0 85.333333 170.965333V725.034667C85.333333 748.757333 104.746667 768 127.658667 768h768.682666c23.381333 0 42.325333-19.157333 42.325334-42.965333v-554.069334c0-23.722667-19.413333-42.965333-42.325334-42.965333H554.666667z"  horiz-adv-x="1024" />

    
    <glyph glyph-name="menu_calendar" unicode="&#58972;" d="M725.333333 768h170.666667a42.666667 42.666667 0 0 0 42.666667-42.666667v-682.666666a42.666667 42.666667 0 0 0-42.666667-42.666667H128a42.666667 42.666667 0 0 0-42.666667 42.666667V725.333333a42.666667 42.666667 0 0 0 42.666667 42.666667h170.666667V853.333333h85.333333v-85.333333h256V853.333333h85.333333v-85.333333z m-85.333333-85.333333H384v-85.333334H298.666667V682.666667H170.666667v-170.666667h682.666666V682.666667h-128v-85.333334h-85.333333V682.666667z m213.333333-256H170.666667v-341.333334h682.666666v341.333334z"  horiz-adv-x="1024" />

    
    <glyph glyph-name="menu_bus" unicode="&#58973;" d="M725.333333 42.666667H298.666667v-42.666667a42.666667 42.666667 0 0 0-42.666667-42.666667H170.666667a42.666667 42.666667 0 0 0-42.666667 42.666667v384H85.333333V554.666667h42.666667V682.666667a85.333333 85.333333 0 0 0 85.333333 85.333333h597.333334a85.333333 85.333333 0 0 0 85.333333-85.333333v-128h42.666667v-170.666667h-42.666667v-384a42.666667 42.666667 0 0 0-42.666667-42.666667h-85.333333a42.666667 42.666667 0 0 0-42.666667 42.666667v42.666667zM213.333333 682.666667v-256h597.333334V682.666667H213.333333z m597.333334-341.333334H213.333333v-213.333333h597.333334v213.333333zM320 170.666667a64 64 0 1 0 0 128 64 64 0 0 0 0-128z m384 0a64 64 0 1 0 0 128 64 64 0 0 0 0-128z"  horiz-adv-x="1024" />

    
    <glyph glyph-name="menu_database" unicode="&#58974;" d="M213.333333 362.666667c0-13.354667 19.669333-36.608 65.28-59.434667C337.664 273.706667 421.418667 256 512 256c90.581333 0 174.336 17.706667 233.386667 47.232 45.610667 22.826667 65.28 46.08 65.28 59.434667v92.629333C740.266667 411.776 632.618667 384 512 384s-228.266667 27.818667-298.666667 71.296V362.666667z m597.333334-120.704C740.266667 198.442667 632.618667 170.666667 512 170.666667s-228.266667 27.818667-298.666667 71.296V149.333333c0-13.354667 19.669333-36.608 65.28-59.434666C337.664 60.373333 421.418667 42.666667 512 42.666667c90.581333 0 174.336 17.706667 233.386667 47.232 45.610667 22.826667 65.28 46.08 65.28 59.434666v92.629334zM128 149.333333v426.666667C128 682.026667 299.946667 768 512 768s384-85.973333 384-192v-426.666667c0-106.026667-171.946667-192-384-192s-384 85.973333-384 192z m384 320c90.581333 0 174.336 17.706667 233.386667 47.232C790.997333 539.392 810.666667 562.645333 810.666667 576c0 13.354667-19.669333 36.608-65.28 59.434667C686.336 664.96 602.581333 682.666667 512 682.666667c-90.581333 0-174.336-17.706667-233.386667-47.232C233.002667 612.608 213.333333 589.354667 213.333333 576c0-13.354667 19.669333-36.608 65.28-59.434667C337.664 487.04 421.418667 469.333333 512 469.333333z"  horiz-adv-x="1024" />

    
    <glyph glyph-name="menu_file" unicode="&#58975;" d="M896 554.666667v-554.368A42.666667 42.666667 0 0 0 853.632-42.666667H170.368A42.368 42.368 0 0 0 128-0.341333V768.341333C128 791.253333 147.157333 810.666667 170.752 810.666667h469.12L896 554.666667z m-85.333333-42.666667h-213.333334V725.333333H213.333333v-682.666666h597.333334V512zM341.333333 597.333333h128v-85.333333H341.333333V597.333333z m0-170.666666h341.333334v-85.333334H341.333333v85.333334z m0-170.666667h341.333334v-85.333333H341.333333v85.333333z"  horiz-adv-x="1024" />

    
    <glyph glyph-name="menu_folder" unicode="&#58976;" d="M170.666667 682.666667v-597.333334h682.666666V597.333333h-358.997333l-85.333333 85.333334H170.666667z m358.997333 0H896a42.666667 42.666667 0 0 0 42.666667-42.666667v-597.333333a42.666667 42.666667 0 0 0-42.666667-42.666667H128a42.666667 42.666667 0 0 0-42.666667 42.666667V725.333333a42.666667 42.666667 0 0 0 42.666667 42.666667h316.330667l85.333333-85.333333z"  horiz-adv-x="1024" />

    
    <glyph glyph-name="menu_group" unicode="&#58977;" d="M85.333333-42.666667a341.333333 341.333333 0 1 0 682.666667 0h-85.333333a256 256 0 1 1-512 0H85.333333z m341.333334 384c-141.44 0-256 114.56-256 256s114.56 256 256 256 256-114.56 256-256-114.56-256-256-256z m0 85.333334c94.293333 0 170.666667 76.373333 170.666666 170.666666s-76.373333 170.666667-170.666666 170.666667-170.666667-76.373333-170.666667-170.666667 76.373333-170.666667 170.666667-170.666666z m353.450666-157.994667A341.418667 341.418667 0 0 0 981.333333-42.666667h-85.333333a256.042667 256.042667 0 0 1-150.912 233.514667l34.986667 77.824z m-29.354666 481.706667A234.666667 234.666667 0 0 0 896 533.333333a234.624 234.624 0 0 0-213.333333-233.728v85.888a149.333333 149.333333 0 0 1 44.416 281.984l23.68 82.901334z"  horiz-adv-x="1024" />

    
    <glyph glyph-name="menu_image" unicode="&#58978;" d="M213.333333 422.4l85.333334 85.333333 234.666666-234.666666 149.333334 149.333333 128-128V682.666667H213.333333v-260.266667z m0-120.704V85.333333h132.266667l127.402667 127.36L298.666667 387.029333l-85.333334-85.333333zM466.304 85.333333H810.666667v88.362667l-128 128L466.304 85.333333zM170.666667 768h682.666666a42.666667 42.666667 0 0 0 42.666667-42.666667v-682.666666a42.666667 42.666667 0 0 0-42.666667-42.666667H170.666667a42.666667 42.666667 0 0 0-42.666667 42.666667V725.333333a42.666667 42.666667 0 0 0 42.666667 42.666667z m490.666666-298.666667a64 64 0 1 0 0 128 64 64 0 0 0 0-128z"  horiz-adv-x="1024" />

    
    <glyph glyph-name="menu_money" unicode="&#58979;" d="M512-42.666667C276.352-42.666667 85.333333 148.352 85.333333 384S276.352 810.666667 512 810.666667s426.666667-191.018667 426.666667-426.666667-191.018667-426.666667-426.666667-426.666667z m0 85.333334a341.333333 341.333333 0 1 1 0 682.666666 341.333333 341.333333 0 0 1 0-682.666666z m42.666667 298.666666h128v-85.333333h-128v-85.333333h-85.333334v85.333333H341.333333v85.333333h128v42.666667H341.333333v85.333333h110.336L361.130667 559.829333 421.546667 620.202667 512 529.664l90.496 90.538667 60.373333-60.373334L572.330667 469.333333H682.666667v-85.333333h-128v-42.666667z"  horiz-adv-x="1024" />

    
    <glyph glyph-name="menu_store" unicode="&#58980;" d="M896 341.333333v-298.666666a42.666667 42.666667 0 0 0-42.666667-42.666667H170.666667a42.666667 42.666667 0 0 0-42.666667 42.666667v298.666666H85.333333v85.333334l42.666667 213.333333h768l42.666667-213.333333v-85.333334h-42.666667zM213.333333 341.333333v-256h597.333334v256H213.333333z m-40.96 85.333334h679.253334l-25.6 128H197.973333l-25.6-128zM256 298.666667h341.333333v-128H256v128zM128 768h768v-85.333333H128V768z"  horiz-adv-x="1024" />

    
    <glyph glyph-name="menu_settings" unicode="&#58981;" d="M85.333333 384c0 36.906667 4.693333 72.661333 13.482667 106.837333A128 128 0 0 1 212.906667 688.341333a426.24 426.24 0 0 0 184.96 106.88 128 128 0 0 1 228.181333 0 426.24 426.24 0 0 0 184.96-106.88 128 128 0 0 1 114.133333-197.546666 428.202667 428.202667 0 0 0 0-213.632 128 128 0 0 1-114.133333-197.504 426.24 426.24 0 0 0-184.96-106.88 128 128 0 0 1-228.181333 0 426.24 426.24 0 0 0-184.96 106.88 128 128 0 0 1-114.133334 197.546666A429.056 429.056 0 0 0 85.333333 384z m204.970667-128c26.88-46.549333 34.56-100.096 24.064-150.357333 17.408-12.373333 35.925333-23.082667 55.338667-32A213.034667 213.034667 0 0 0 512 128c53.76 0 104.021333-20.096 142.293333-54.357333 19.413333 8.917333 37.930667 19.626667 55.338667 32A213.034667 213.034667 0 0 0 733.696 256a213.034667 213.034667 0 0 0 118.186667 96 346.709333 346.709333 0 0 1 0 64A213.034667 213.034667 0 0 0 733.653333 512a213.034667 213.034667 0 0 0-24.064 150.357333 340.864 340.864 0 0 1-55.338666 32A213.034667 213.034667 0 0 0 512 640a213.034667 213.034667 0 0 0-142.293333 54.357333 340.906667 340.906667 0 0 1-55.338667-32A213.034667 213.034667 0 0 0 290.304 512a213.034667 213.034667 0 0 0-118.186667-96 346.709333 346.709333 0 0 1 0-64A213.034667 213.034667 0 0 0 290.346667 256zM512 256a128 128 0 1 0 0 256 128 128 0 0 0 0-256z m0 85.333333a42.666667 42.666667 0 1 1 0 85.333334 42.666667 42.666667 0 0 1 0-85.333334z"  horiz-adv-x="1024" />

    
    <glyph glyph-name="menu_mail" unicode="&#58982;" d="M128 768h768a42.666667 42.666667 0 0 0 42.666667-42.666667v-682.666666a42.666667 42.666667 0 0 0-42.666667-42.666667H128a42.666667 42.666667 0 0 0-42.666667 42.666667V725.333333a42.666667 42.666667 0 0 0 42.666667 42.666667z m725.333333-180.821333l-338.261333-302.933334L170.666667 588.117333V85.333333h682.666666V587.178667zM192.469333 682.666667l322.133334-284.245334L832.085333 682.666667H192.469333z"  horiz-adv-x="1024" />

    
    <glyph glyph-name="menu_menu" unicode="&#58983;" d="M128 725.333333h768v-85.333333H128V725.333333z m0-298.666666h768v-85.333334H128v85.333334z m0-298.666667h768v-85.333333H128v85.333333z"  horiz-adv-x="1024" />

    
    <glyph glyph-name="menu_home" unicode="&#58984;" d="M810.666667 0H213.333333a42.666667 42.666667 0 0 0-42.666666 42.666667v384H42.666667l440.618666 400.554666a42.666667 42.666667 0 0 0 57.429334 0L981.333333 426.666667h-128v-384a42.666667 42.666667 0 0 0-42.666666-42.666667zM256 85.333333h512V505.301333l-256 232.704-256-232.704V85.333333z"  horiz-adv-x="1024" />

    
    <glyph glyph-name="copy" unicode="&#58888;" d="M853.333-85.333h-384c-72.533 0-128 55.466-128 128v384c0 72.533 55.467 128 128 128h384c72.534 0 128-55.467 128-128v-384c0-72.534-55.466-128-128-128z m-384 554.666c-25.6 0-42.666-17.066-42.666-42.666v-384c0-25.6 17.066-42.667 42.666-42.667h384c25.6 0 42.667 17.067 42.667 42.667v384c0 25.6-17.067 42.666-42.667 42.666h-384zM213.333 213.333h-42.666c-72.534 0-128 55.467-128 128v384c0 72.534 55.466 128 128 128h384c72.533 0 128-55.466 128-128v-42.666C682.667 657.067 665.6 640 640 640s-42.667 17.067-42.667 42.667v42.666c0 25.6-17.066 42.667-42.666 42.667h-384c-25.6 0-42.667-17.067-42.667-42.667v-384c0-25.6 17.067-42.666 42.667-42.666h42.666C238.933 298.667 256 281.6 256 256s-17.067-42.667-42.667-42.667z"  horiz-adv-x="1024" />

    
    <glyph glyph-name="iconOpt" unicode="&#58882;" d="M512 896C465.066667 896 426.666667 857.6 426.666667 810.666667S465.066667 725.333333 512 725.333333s85.333333 38.4 85.333333 85.333334S558.933333 896 512 896z m0-853.333333c-46.933333 0-85.333333-38.4-85.333333-85.333334S465.066667-128 512-128s85.333333 38.4 85.333333 85.333333S558.933333 42.666667 512 42.666667z m0 426.666666C465.066667 469.333333 426.666667 430.933333 426.666667 384s38.4-85.333333 85.333333-85.333333S597.333333 337.066667 597.333333 384 558.933333 469.333333 512 469.333333z"  horiz-adv-x="1024" />

    
    <glyph glyph-name="app" unicode="&#58970;" d="M213.333333-42.66666699999996a128 128 0 0 0-128 128V682.666667a128 128 0 0 0 128 128h597.333334a128 128 0 0 0 128-128v-597.333334a128 128 0 0 0-128-128z m128 512H170.666667v-384a42.666667 42.666667 0 0 1 37.674666-42.368L213.333333 42.66666699999996h128V469.333333z m512 0H426.666667v-426.666666h384a42.666667 42.666667 0 0 1 42.368 37.674666L853.333333 85.33333300000004v384z m-42.666666 256H213.333333a42.666667 42.666667 0 0 1-42.666666-42.666666v-128h682.666666V682.666667a42.666667 42.666667 0 0 1-37.674666 42.368L810.666667 725.333333z"  horiz-adv-x="1024" />

    
    <glyph glyph-name="project_calendar" unicode="&#58960;" d="M682.666667 853.333333a42.666667 42.666667 0 0 0 42.368-37.674666L725.333333 810.666667v-42.666667h85.333334a128 128 0 0 0 127.786666-120.490667L938.666667 640v-597.333333a128 128 0 0 0-128-128H213.333333a128 128 0 0 0-128 128V640a128 128 0 0 0 128 128h85.333334V810.666667a42.666667 42.666667 0 0 0 85.034666 4.992L384 810.666667v-42.666667h256V810.666667a42.666667 42.666667 0 0 0 42.666667 42.666666z m170.666666-426.666666H170.666667v-384a42.666667 42.666667 0 0 1 37.674666-42.368L213.333333 0h597.333334a42.666667 42.666667 0 0 1 42.666666 42.666667v384zM298.666667 682.666667H213.333333a42.666667 42.666667 0 0 1-42.666666-42.666667v-128h682.666666V640a42.666667 42.666667 0 0 1-37.674666 42.368L810.666667 682.666667h-85.333334v-42.666667a42.666667 42.666667 0 0 0-85.034666-4.992L640 640V682.666667H384v-42.666667a42.666667 42.666667 0 0 0-85.034667-4.992L298.666667 640V682.666667z"  horiz-adv-x="1024" />

    
    <glyph glyph-name="project_clipboard" unicode="&#58961;" d="M640 853.333333a85.333333 85.333333 0 0 0 85.333333-85.333333h42.666667a128 128 0 0 0 127.786667-120.490667L896 640v-597.333333a128 128 0 0 0-120.490667-127.786667L768-85.333333H256a128 128 0 0 0-127.786667 120.490666L128 42.666667V640a128 128 0 0 0 120.490667 127.786667L256 768h42.666667a85.333333 85.333333 0 0 0 85.333333 85.333333z m85.333333-170.666666a85.333333 85.333333 0 0 0-85.333333-85.333334H384a85.333333 85.333333 0 0 0-85.333333 85.333334H256a42.666667 42.666667 0 0 1-42.368-37.674667L213.333333 640v-597.333333a42.666667 42.666667 0 0 1 37.674667-42.368L256 0h512a42.666667 42.666667 0 0 1 42.368 37.674667L810.666667 42.666667V640a42.666667 42.666667 0 0 1-37.674667 42.368L768 682.666667z m-85.333333 85.333333H384v-85.333333h256V768z"  horiz-adv-x="1024" />

    
    <glyph glyph-name="project_briefcase" unicode="&#58962;" d="M170.666667-42.666667a128 128 0 0 0-128 128V512a128 128 0 0 0 128 128h128V682.666667a128 128 0 0 0 120.490666 127.786666L426.666667 810.666667h170.666666a128 128 0 0 0 127.786667-120.490667L725.333333 682.666667v-42.666667h128a128 128 0 0 0 127.786667-120.490667L981.333333 512v-426.666667a128 128 0 0 0-128-128zM298.666667 554.666667H170.666667a42.666667 42.666667 0 0 1-42.666667-42.666667v-426.666667a42.666667 42.666667 0 0 1 42.666667-42.666666h128V554.666667z m341.333333 0H384v-512h256V554.666667z m213.333333 0h-128v-512h128a42.666667 42.666667 0 0 1 42.368 37.674666L896 85.333333V512a42.666667 42.666667 0 0 1-42.666667 42.666667z m-256 170.666666h-170.666666a42.666667 42.666667 0 0 1-42.368-37.674666L384 682.666667v-42.666667h256V682.666667a42.666667 42.666667 0 0 1-37.674667 42.368L597.333333 725.333333z"  horiz-adv-x="1024" />

    
    <glyph glyph-name="project_file-text" unicode="&#58963;" d="M597.333333 853.333333a43.093333 43.093333 0 0 0 10.666667-1.322666l1.28-0.384c1.28-0.384 2.602667-0.853333 3.882667-1.322667l1.152-0.512a38.997333 38.997333 0 0 0 8.32-4.778667c1.706667-1.28 3.328-2.645333 4.864-4.181333l-3.968 3.498667 0.469333-0.384 3.498667-3.114667 256-256a42.922667 42.922667 0 0 0 8.96-13.184l0.512-1.152c0.512-1.28 0.938667-2.56 1.322666-3.882667l0.341334-1.28A39.296 39.296 0 0 0 896 554.666667l-0.341333 5.376 0.042666-0.426667L896 554.666667v-512a128 128 0 0 0-128-128H256a128 128 0 0 0-128 128V725.333333a128 128 0 0 0 128 128h341.333333z m-42.666666-85.333333H256a42.666667 42.666667 0 0 1-42.666667-42.666667v-682.666666a42.666667 42.666667 0 0 1 42.666667-42.666667h512a42.666667 42.666667 0 0 1 42.666667 42.666667V512h-213.333334a42.666667 42.666667 0 0 0-42.368 37.674667L554.666667 554.666667V768z m128-554.666667a42.666667 42.666667 0 0 0 4.992-85.034666L682.666667 128H341.333333a42.666667 42.666667 0 0 0-4.992 85.034667L341.333333 213.333333h341.333334z m0 170.666667a42.666667 42.666667 0 0 0 4.992-85.034667L682.666667 298.666667H341.333333a42.666667 42.666667 0 0 0-4.992 85.034666L341.333333 384h341.333334z m-256 170.666667a42.666667 42.666667 0 0 0 4.992-85.034667L426.666667 469.333333H341.333333a42.666667 42.666667 0 0 0-4.992 85.034667L341.333333 554.666667h85.333334z m213.333333 152.96V597.333333h110.293333L640 707.626667z"  horiz-adv-x="1024" />

    
    <glyph glyph-name="project_package" unicode="&#58964;" d="M448 836.096a127.914667 127.914667 0 0 0 127.829333 0.085333L874.666667 665.429333c15.957333-9.216 29.482667-21.589333 39.893333-36.096a43.477333 43.477333 0 0 0 10.666667-17.493333c8.661333-17.493333 13.44-36.992 13.44-57.173333v-341.376a128.085333 128.085333 0 0 0-64.170667-110.805334L576-68.096a128 128 0 0 0-43.818667-15.573333 42.496 42.496 0 0 0-40.405333 0 127.530667 127.530667 0 0 0-43.605333 15.488L149.333333 102.570667A128 128 0 0 0 85.333333 213.333333V554.709333c0 20.053333 4.736 39.509333 13.397334 56.874667a42.837333 42.837333 0 0 0 10.709333 17.749333c10.410667 14.506667 23.893333 26.88 39.893333 36.096l138.88 79.36a42.666667 42.666667 0 0 0 23.466667 13.44zM170.624 531.754667L170.666667 213.376c0-15.232 8.106667-29.312 21.162666-36.821333L469.333333 17.962667v341.034666l-298.709333 172.8z m682.666667 0L554.666667 358.997333v-340.906666l277.333333 158.378666a42.666667 42.666667 0 0 1 21.034667 31.872L853.333333 213.333333l-0.042666 318.421334zM322.133333 665.898667L214.997333 604.672 512 432.896l106.922667 61.866667L322.133333 665.898667z m211.2 96.298666a42.752 42.752 0 0 1-42.837333-0.085333L407.936 714.922667l296.277333-170.837334 104.746667 60.586667z"  horiz-adv-x="1024" />

    
    <glyph glyph-name="project_phone" unicode="&#58965;" d="M302.933333 853.333333H175.36a128.085333 128.085333 0 0 1-127.402667-139.52 887.68 887.68 0 0 1 137.685334-389.290666 874.24 874.24 0 0 1 268.928-268.8 886.613333 886.613333 0 0 1 386.474666-137.386667A128 128 0 0 1 981.333333 46.250667V174.08c1.578667 63.914667-45.738667 119.765333-110.08 128.853333a506.112 506.112 0 0 0-110.933333 27.605334l-8.32 2.773333a128 128 0 0 1-126.634667-31.573333l-30.762666-30.72-5.077334 3.157333a640 640 0 0 0-187.306666 187.349333l-3.242667 5.12 30.549333 30.549334a128.085333 128.085333 0 0 1 29.013334 135.210666A504.96 504.96 0 0 0 430.933333 742.826667a128.128 128.128 0 0 1-128 110.506666zM175.402667 768H303.786667a42.666667 42.666667 0 0 0 42.666666-36.693333c5.76-43.776 16.554667-87.125333 32.128-128.853334a42.666667 42.666667 0 0 0-9.557333-45.098666L315.008 503.338667a42.666667 42.666667 0 0 1-6.912-51.242667 725.333333 725.333333 0 0 1 272-272 42.666667 42.666667 0 0 1 51.242667 6.912l54.186666 54.186667a42.581333 42.581333 0 0 0 44.842667 9.386666c41.813333-15.573333 85.162667-26.368 129.322667-32.170666 21.077333-2.986667 36.864-21.632 36.309333-43.264v-129.066667a42.752 42.752 0 0 0-46.506667-42.837333 801.024 801.024 0 0 0-348.842666 124.288 789.802667 789.802667 0 0 0-243.2 243.072 802.133333 802.133333 0 0 0-124.586667 351.573333A42.666667 42.666667 0 0 0 175.402667 768z"  horiz-adv-x="1024" />

    
    <glyph glyph-name="project_shopping-cart" unicode="&#58966;" d="M384 42.666667a85.333333 85.333333 0 1 0 0-170.666667 85.333333 85.333333 0 0 0 0 170.666667z m469.333333 0a85.333333 85.333333 0 1 0 0-170.666667 85.333333 85.333333 0 0 0 0 170.666667zM213.333333 853.333333a42.666667 42.666667 0 0 0 40.533334-29.44l1.28-4.864L290.986667 640H981.333333a42.666667 42.666667 0 0 0 42.581334-45.738667l-0.682667-4.906666-68.309333-358.314667a127.872 127.872 0 0 0-119.594667-102.954667L827.733333 128H413.866667a128 128 0 0 0-126.293334 95.488l-1.706666 7.509333L178.346667 768H42.666667a42.666667 42.666667 0 0 0-42.368 37.674667L0 810.666667a42.666667 42.666667 0 0 0 37.674667 42.368L42.666667 853.333333h170.666666z m716.373334-298.666666H308.053333l61.44-306.986667c3.712-18.602667 19.157333-32.298667 38.229334-34.133333L413.013333 213.333333h415.573334a42.666667 42.666667 0 0 1 41.301333 29.141334l1.28 4.864L929.706667 554.666667z"  horiz-adv-x="1024" />

    
    <glyph glyph-name="project_pie-chart" unicode="&#58967;" d="M380.458667 792.32A42.666667 42.666667 0 0 0 358.4 736.128 384 384 0 1 1 865.664 234.666667a42.666667 42.666667 0 0 0 78.592-33.194667A469.333333 469.333333 0 1 0 324.266667 814.378667a42.666667 42.666667 0 0 0 56.192-22.058667zM512 853.333333a469.333333 469.333333 0 0 0 469.333333-469.333333 42.666667 42.666667 0 0 0-42.666666-42.666667H512a42.666667 42.666667 0 0 0-42.666667 42.666667V810.666667a42.666667 42.666667 0 0 0 42.666667 42.666666z m42.666667-87.722666V426.666667h338.901333l-1.194667 9.984A384 384 0 0 1 792.746667 645.973333l-9.216 9.557334a384 384 0 0 1-218.88 108.842666L554.666667 765.610667z"  horiz-adv-x="1024" />

    
    <glyph glyph-name="project_truck" unicode="&#58968;" d="M682.666667 810.666667a42.666667 42.666667 0 0 0 42.666666-42.666667v-170.666667h128a42.666667 42.666667 0 0 0 25.941334-8.789333l4.266666-3.712 128-128A42.666667 42.666667 0 0 0 1024 426.666667v-213.333334a42.666667 42.666667 0 0 0-42.666667-42.666666h-57.045333a149.333333 149.333333 0 1 0-269.909333 0H369.621333a149.333333 149.333333 0 1 0-269.909333 0H42.666667a42.666667 42.666667 0 0 0-42.666667 42.666666V768a42.666667 42.666667 0 0 0 42.666667 42.666667zM234.666667 170.666667a64 64 0 1 1 0-128 64 64 0 0 1 0 128z m554.666666 0a64 64 0 1 1 0-128 64 64 0 0 1 0 128zM640 725.333333H85.333333v-469.333333h554.666667V725.333333z m195.626667-213.333333H725.333333v-256h213.333334v152.96L835.626667 512z"  horiz-adv-x="1024" />

    
    <glyph glyph-name="project_users" unicode="&#58969;" d="M554.666667 298.666667a213.333333 213.333333 0 0 0 213.12-204.074667L768 85.333333v-85.333333a42.666667 42.666667 0 0 0-85.034667-4.992L682.666667 0v85.333333a128 128 0 0 1-120.490667 127.786667L554.666667 213.333333H213.333333a128 128 0 0 1-127.786666-120.490666L85.333333 85.333333v-85.333333a42.666667 42.666667 0 0 0-85.034666-4.992L0 0v85.333333a213.333333 213.333333 0 0 0 204.074667 213.12L213.333333 298.666667h341.333334z m309.333333-6.912a213.333333 213.333333 0 0 0 159.786667-196.736L1024 85.333333v-85.333333a42.666667 42.666667 0 0 0-85.034667-4.992L938.666667 0v85.333333a128 128 0 0 1-96 123.818667 42.666667 42.666667 0 1 0 21.333333 82.602667zM384 810.666667a213.333333 213.333333 0 1 0 0-426.666667A213.333333 213.333333 0 0 0 384 810.666667z m309.248-6.869334a213.333333 213.333333 0 0 0 0-413.354666 42.666667 42.666667 0 0 0-21.162667 82.688 128 128 0 0 1 0 247.978666 42.666667 42.666667 0 1 0 21.162667 82.688zM384 725.333333a128 128 0 1 1 0-256 128 128 0 0 1 0 256z"  horiz-adv-x="1024" />

    
    <glyph glyph-name="faceBg" unicode="&#58881;" d="M527.344 461.856c91.968-61.088 142.432-182.48 92.48-303.488-47.504-115.12-173.952-157.728-286.288-166.096-109.6-8.16-225.808 18.608-249.088 126.224-23.12 106.912 64 216.032 159.136 289.792 90.848 70.432 202.736 107.392 283.76 53.568zM624 672m-32 0a32 32 0 1 1 64 0 32 32 0 1 1-64 0ZM736 592m-16 0a16 16 0 1 1 32 0 16 16 0 1 1-32 0Z"  horiz-adv-x="1024" />

    
    <glyph glyph-name="cell_placeholder" unicode="&#58958;" d="M102.4 793.6h819.2v-819.2H102.4z"  horiz-adv-x="1024" />

    
    <glyph glyph-name="pagination_placeholder" unicode="&#58959;" d="M819.2 588.8h2457.6v-409.6H819.2zM0 588.8h409.6v-409.6H0z"  horiz-adv-x="3276" />

    
    <glyph glyph-name="git-function-fill" unicode="&#58954;" d="M213.333333 128l327.68 256L213.333333 640V725.333333h597.333334v-85.333333H352.554667L682.666667 384l-330.112-256H810.666667v-85.333333H213.333333z"  horiz-adv-x="1024" />

    
    <glyph glyph-name="git-flow-fill" unicode="&#58955;" d="M303.146667 520.96A128.042667 128.042667 0 0 1 426.666667 426.666667h170.666666a213.376 213.376 0 0 0 210.218667-176.896 128.042667 128.042667 0 1 0-121.173333-220.416 128 128 0 0 0 34.474666 217.685333A128.042667 128.042667 0 0 1 597.333333 341.333333h-170.666666a212.394667 212.394667 0 0 0-128 42.666667v-135.253333a128.042667 128.042667 0 1 0-85.333334 0V519.253333a128.042667 128.042667 0 1 0 89.813334 1.706667z"  horiz-adv-x="1024" />

    
    <glyph glyph-name="pencil-ruler--fill" unicode="&#58956;" d="M240.469333 353.834667l77.994667-78.037334L378.88 336.213333l-78.08 77.952 60.330667 60.330667 78.037333-77.994667 60.330667 60.330667L421.546667 534.869333l60.330666 60.330667 77.909334-78.08 60.373333 60.373333-78.037333 77.994667 120.704 120.661333a42.666667 42.666667 0 0 0 60.330666 0l180.992-180.992a42.666667 42.666667 0 0 0 0-60.330666L361.130667-8.192a42.666667 42.666667 0 0 0-60.330667 0L119.808 172.8a42.666667 42.666667 0 0 0 0 60.330667l120.661333 120.704z m362.026667-241.322667l181.034667 180.992L896 181.034667V0h-180.992l-112.512 112.512zM240.469333 474.538667L119.765333 595.2a42.666667 42.666667 0 0 0 0 60.373333l120.704 120.661334a42.666667 42.666667 0 0 0 60.330667 0l120.746667-120.661334-181.077334-181.034666z"  horiz-adv-x="1024" />

    
    <glyph glyph-name="settings" unicode="&#58957;" d="M227.584 702.08a426.24 426.24 0 0 0 151.125333 87.381333A170.368 170.368 0 0 1 512 725.376a170.368 170.368 0 0 1 133.290667 64.085333 426.24 426.24 0 0 0 151.125333-87.381333 170.410667 170.410667 0 0 1 62.72-203.008c21.162667-14.464 45.312-23.936 70.613333-27.776 11.946667-57.557333 11.946667-116.949333 0-174.506667a170.496 170.496 0 0 1-144.554666-155.861333 170.325333 170.325333 0 0 1 11.221333-74.965333 426.24 426.24 0 0 0-151.125333-87.338667A170.368 170.368 0 0 1 512 42.666667a170.410667 170.410667 0 0 1-133.290667-64.085334 426.24 426.24 0 0 0-151.125333 87.338667A170.368 170.368 0 0 1 216.405333 213.333333a170.368 170.368 0 0 1-122.154666 83.370667c-11.946667 57.6-11.946667 116.992 0 174.549333A170.368 170.368 0 0 1 216.405333 554.666667a170.368 170.368 0 0 1 11.178667 147.370666v0.042667zM576 273.194667a128 128 0 1 1-126.506667 222.506666 128 128 0 0 1 126.506667-222.506666z"  horiz-adv-x="1024" />

    
    <glyph glyph-name="danxuan" unicode="&#58953;" d="M768 554.666667H256c-23.466667 0-42.666667-19.2-42.666667-42.666667v-256c0-23.466667 19.2-42.666667 42.666667-42.666667h512c23.466667 0 42.666667 19.2 42.666667 42.666667V512c0 23.466667-19.2 42.666667-42.666667 42.666667z m0-277.333334c0-12.8-8.533333-21.333333-21.333333-21.333333h-469.333334c-12.8 0-21.333333 8.533333-21.333333 21.333333v213.333334c0 12.8 8.533333 21.333333 21.333333 21.333333h469.333334c12.8 0 21.333333-8.533333 21.333333-21.333333v-213.333334zM597.333333 426.666667h150.186667l-75.093333-81.92L597.333333 426.666667z"  horiz-adv-x="1024" />

    
    <glyph glyph-name="ri-filter-line" unicode="&#58951;" d="M384 320L170.666667 640H128V725.333333h768v-85.333333h-42.666667l-213.333333-320V-42.666667H384v362.666667zM273.237333 640L469.333333 345.856V42.666667h85.333334v303.189333L750.762667 640H273.237333z"  horiz-adv-x="1024" />

    
    <glyph glyph-name="ri-link" unicode="&#58952;" d="M783.530667 233.130667L723.2 293.546667l60.330667 60.330666a213.333333 213.333333 0 1 1-301.696 301.653334L421.504 595.2 361.130667 655.530667 421.546667 715.861333a298.666667 298.666667 0 1 0 422.4-422.4l-60.373334-60.330666h-0.042666z m-120.661334-120.661334l-60.373333-60.330666a298.666667 298.666667 0 1 0-422.4 422.4l60.373333 60.330666L300.8 474.453333l-60.330667-60.330666a213.333333 213.333333 0 1 1 301.696-301.696l60.330667 60.330666 60.373333-60.330666z m-30.208 452.565334l60.373334-60.373334-301.696-301.653333-60.373334 60.330667 301.696 301.653333z"  horiz-adv-x="1024" />

    
    <glyph glyph-name="check1" unicode="&#58947;" d="M1024 896H0v-1024h1024V896z m-64-64v-896H64V832h896z"  horiz-adv-x="1024" />

    
    <glyph glyph-name="radio_selected" unicode="&#58948;" d="M512 896a512 512 0 1 1 0-1024A512 512 0 0 1 512 896z m0-320a192 192 0 1 0 0-384 192 192 0 0 0 0 384z"  horiz-adv-x="1024" />

    
    <glyph glyph-name="radio" unicode="&#58949;" d="M512 896a512 512 0 1 1 0-1024A512 512 0 0 1 512 896z m0-64a448 448 0 1 0 0-896A448 448 0 0 0 512 832z"  horiz-adv-x="1024" />

    
    <glyph glyph-name="check_selected" unicode="&#58950;" d="M1024 896v-1024H0V896h1024z m-245.376-320L432 229.312 245.312 416 192 362.688l240-240L832 522.688 778.624 576z"  horiz-adv-x="1024" />

    
    <glyph glyph-name="dizhi" unicode="&#58900;" d="M473.6 716.8l150.613333-112.981333 169.130667 75.178666A42.666667 42.666667 0 0 0 853.333333 640v-426.666667a42.666667 42.666667 0 0 0-18.986666-35.498666l-192-128A42.666667 42.666667 0 0 0 593.066667 51.2l-148.522667 111.36-167.808-93.184A42.666667 42.666667 0 0 0 213.333333 106.666667v469.333333a42.666667 42.666667 0 0 0 21.930667 37.290667l192 106.666666A42.666667 42.666667 0 0 0 473.6 716.8zM810.666667 640l-170.666667-75.861333v-464.597334L810.666667 213.333333V640z m-341.333334 26.666667v-469.333334l128-96v469.333334l-128 96z m-42.666666 4.138666L256 576v-469.333333l170.666667 94.805333v469.333333z"  horiz-adv-x="1024" />

    
    <glyph glyph-name="quduan" unicode="&#58938;" d="M426.666667 704a21.333333 21.333333 0 0 0 21.333333 21.333333H597.333333a21.333333 21.333333 0 0 0 0-42.666666h-128v-597.333334h128a21.333333 21.333333 0 0 0 0-42.666666h-149.333333a21.333333 21.333333 0 0 0-21.333333 21.333333v640z"  horiz-adv-x="1024" />

    
    <glyph glyph-name="duohang" unicode="&#58939;" d="M768 682.666667H256a85.333333 85.333333 0 0 1-85.333333-85.333334v-426.666666a85.333333 85.333333 0 0 1 85.333333-85.333334h512a85.333333 85.333333 0 0 1 85.333333 85.333334V597.333333a85.333333 85.333333 0 0 1-85.333333 85.333334zM213.333333 597.333333a42.666667 42.666667 0 0 0 42.666667 42.666667h512a42.666667 42.666667 0 0 0 42.666667-42.666667v-426.666666a42.666667 42.666667 0 0 0-42.666667-42.666667H256a42.666667 42.666667 0 0 0-42.666667 42.666667V597.333333z m106.666667-42.666666c-12.8 0-21.333333-6.826667-21.333333-17.066667v-136.533333c0-8.533333 8.533333-17.066667 21.333333-17.066667s21.333333 6.826667 21.333333 17.066667V537.6c0 8.533333-8.533333 17.066667-21.333333 17.066667z"  horiz-adv-x="1024" />

    
    <glyph glyph-name="danhang" unicode="&#58940;" d="M768 554.666667H256c-23.466667 0-42.666667-17.066667-42.666667-37.930667v-265.472C213.333333 230.4 232.533333 213.333333 256 213.333333h512c23.466667 0 42.666667 17.066667 42.666667 37.930667V516.693333C810.666667 537.6 791.466667 554.666667 768 554.666667z m0-284.458667c0-11.349333-8.533333-18.944-21.333333-18.944h-469.333334c-12.8 0-21.333333 7.594667-21.333333 18.944V497.792c0 11.349333 8.533333 18.944 21.333333 18.944h469.333334c12.8 0 21.333333-7.594667 21.333333-18.944v-227.584zM298.666667 618.666667a21.333333 21.333333 0 0 0 42.666666 0v-469.333334a21.333333 21.333333 0 0 0-42.666666 0v469.333334z"  horiz-adv-x="1024" />

    
    <glyph glyph-name="shijian" unicode="&#58941;" d="M533.333333 597.333333c68.906667 0 131.925333-25.130667 180.48-66.730666l39.082667 39.168a21.333333 21.333333 0 0 0 30.208-30.208l-39.168-39.125334A277.333333 277.333333 0 1 0 533.333333 597.333333z m0-42.666666a234.666667 234.666667 0 1 1 0-469.333334 234.666667 234.666667 0 0 1 0 469.333334z m0-85.333334a21.333333 21.333333 0 0 0 21.333334-21.333333V341.333333h21.333333a21.333333 21.333333 0 0 0 0-42.666666h-42.666667a21.333333 21.333333 0 0 0-21.333333 21.333333v128a21.333333 21.333333 0 0 0 21.333333 21.333333z m128 213.333334a21.333333 21.333333 0 0 0 0-42.666667h-256a21.333333 21.333333 0 0 0 0 42.666667h256z"  horiz-adv-x="1024" />

    
    <glyph glyph-name="riqi" unicode="&#58942;" d="M384 768v-85.333333h256V768h42.666667v-85.333333h170.666666a42.666667 42.666667 0 0 0 42.666667-42.666667v-597.333333a42.666667 42.666667 0 0 0-42.666667-42.666667H170.666667a42.666667 42.666667 0 0 0-42.666667 42.666667V640a42.666667 42.666667 0 0 0 42.666667 42.666667h170.666666V768h42.666667z m469.333333-298.666667H170.666667v-426.666666h682.666666V469.333333zM298.666667 170.666667v-42.666667H256v42.666667h42.666667z m469.333333 0v-42.666667H384v42.666667h384zM298.666667 384v-42.666667H256v42.666667h42.666667z m469.333333 0v-42.666667H384v42.666667h384zM341.333333 640H170.666667v-128h682.666666V640h-170.666666v-42.666667h-42.666667V640H384v-42.666667H341.333333V640z"  horiz-adv-x="1024" />

    
    <glyph glyph-name="riqibeifen" unicode="&#58943;" d="M426.666667 704a21.333333 21.333333 0 0 0 21.333333 21.333333H597.333333a21.333333 21.333333 0 0 0 0-42.666666h-128v-597.333334h128a21.333333 21.333333 0 0 0 0-42.666666h-149.333333a21.333333 21.333333 0 0 0-21.333333 21.333333v640z"  horiz-adv-x="1024" />

    
    <glyph glyph-name="fuxuankuang" unicode="&#58944;" d="M768 725.333333H256a85.333333 85.333333 0 0 1-85.333333-85.333333v-512a85.333333 85.333333 0 0 1 85.333333-85.333333h512a85.333333 85.333333 0 0 1 85.333333 85.333333V640a85.333333 85.333333 0 0 1-85.333333 85.333333zM213.333333 640a42.666667 42.666667 0 0 0 42.666667 42.666667h512a42.666667 42.666667 0 0 0 42.666667-42.666667v-512a42.666667 42.666667 0 0 0-42.666667-42.666667H256a42.666667 42.666667 0 0 0-42.666667 42.666667V640z m527.104-143.104a21.333333 21.333333 0 0 1-30.208 30.208L469.333333 286.165333l-134.229333 134.272a21.333333 21.333333 0 0 1-30.208-30.208l149.333333-149.333333a21.333333 21.333333 0 0 1 30.208 0l256 256z"  horiz-adv-x="1024" />

    
    <glyph glyph-name="zibiaodan" unicode="&#58945;" d="M597.333333 768a85.333333 85.333333 0 0 0 85.333334-85.333333v-85.333334h85.333333a85.333333 85.333333 0 0 0 85.333333-85.333333v-426.666667a85.333333 85.333333 0 0 0-85.333333-85.333333h-341.333333a85.333333 85.333333 0 0 0-85.333334 85.333333v85.333334H256a85.333333 85.333333 0 0 0-85.333333 85.333333V682.666667a85.333333 85.333333 0 0 0 85.333333 85.333333h341.333333z m170.666667-213.333333h-341.333333a42.666667 42.666667 0 0 1-42.666667-42.666667v-426.666667a42.666667 42.666667 0 0 1 42.666667-42.666666h341.333333a42.666667 42.666667 0 0 1 42.666667 42.666666V512a42.666667 42.666667 0 0 1-42.666667 42.666667z m-320-341.333334a21.333333 21.333333 0 1 0 0-42.666666 21.333333 21.333333 0 0 0 0 42.666666z m298.666667 0a21.333333 21.333333 0 0 0 0-42.666666h-213.333334a21.333333 21.333333 0 0 0 0 42.666666zM597.333333 725.333333H256a42.666667 42.666667 0 0 1-42.666667-42.666666v-426.666667a42.666667 42.666667 0 0 1 42.666667-42.666667h85.333333V512a85.333333 85.333333 0 0 0 85.333334 85.333333h213.333333V682.666667a42.666667 42.666667 0 0 1-42.666667 42.666666z m-149.333333-384a21.333333 21.333333 0 1 0 0-42.666666 21.333333 21.333333 0 0 0 0 42.666666z m298.666667 0a21.333333 21.333333 0 0 0 0-42.666666h-213.333334a21.333333 21.333333 0 0 0 0 42.666666z m-298.666667 128a21.333333 21.333333 0 1 0 0-42.666666 21.333333 21.333333 0 0 0 0 42.666666z m298.666667 0a21.333333 21.333333 0 0 0 0-42.666666h-213.333334a21.333333 21.333333 0 0 0 0 42.666666z"  horiz-adv-x="1024" />

    
    <glyph glyph-name="shuzi" unicode="&#58946;" d="M170.666667 170.666667h682.666666v-42.666667H170.666667zM173.568 256h201.728v34.816H299.008V630.784h-31.744c-19.456-11.776-43.52-19.968-75.776-25.6v-27.136h66.048v-287.232H173.568V256zM389.376 256h231.936v35.84h-107.52c-18.944 0-41.472-1.024-61.44-3.072 91.648 86.016 151.04 163.328 151.04 239.104 0 66.56-40.96 109.568-107.52 109.568-46.592 0-78.848-22.016-109.056-54.784l24.576-23.552c21.504 25.088 48.64 44.544 79.872 44.544 48.128 0 71.168-33.28 71.168-77.312 0-65.024-53.248-140.8-173.056-245.248V256zM738.816 249.344c65.536 0 117.76 39.936 117.76 106.496 0 51.712-35.84 85.504-79.872 95.744v2.048c39.936 14.336 67.072 44.544 67.072 91.136 0 59.392-45.056 92.672-106.496 93.184-43.008-0.512-75.776-19.456-103.424-44.544l23.04-27.136c20.992 21.504 48.128 37.376 78.848 37.888 40.448-0.512 65.536-25.088 65.536-62.464 0-41.984-27.136-74.24-105.472-74.24v-32.768c87.04 0 118.784-31.232 118.784-77.824 0-44.544-32.768-72.704-78.336-72.704-44.544 0-72.704 20.992-94.72 43.52l-21.504-27.136c24.064-26.112 60.416-51.2 118.784-51.2z"  horiz-adv-x="1024" />

    
    <glyph glyph-name="ri-file-list--line" unicode="&#58923;" d="M810.666667-42.666667H213.333333a128 128 0 0 0-128 128V768a42.666667 42.666667 0 0 0 42.666667 42.666667h597.333333a42.666667 42.666667 0 0 0 42.666667-42.666667v-512h170.666667v-170.666667a128 128 0 0 0-128-128z m-42.666667 213.333334v-85.333334a42.666667 42.666667 0 0 1 85.333333 0v85.333334h-85.333333z m-85.333333-128V725.333333H170.666667v-640a42.666667 42.666667 0 0 1 42.666666-42.666666h469.333334zM256 597.333333h341.333333v-85.333333H256V597.333333z m0-170.666666h341.333333v-85.333334H256v85.333334z m0-170.666667h213.333333v-85.333333H256v85.333333z"  horiz-adv-x="1024" />

    
    <glyph glyph-name="ri-menu--line" unicode="&#58924;" d="M128 725.333333h768v-85.333333H128V725.333333z m0-298.666666h512v-85.333334H128v85.333334z m0-298.666667h768v-85.333333H128v85.333333z"  horiz-adv-x="1024" />

    
    <glyph glyph-name="ri-database--line" unicode="&#58925;" d="M213.333333 362.666667c0-13.354667 19.669333-36.608 65.28-59.434667C337.664 273.706667 421.418667 256 512 256c90.581333 0 174.336 17.706667 233.386667 47.232 45.610667 22.826667 65.28 46.08 65.28 59.434667v92.629333C740.266667 411.776 632.618667 384 512 384s-228.266667 27.818667-298.666667 71.296V362.666667z m597.333334-120.704C740.266667 198.442667 632.618667 170.666667 512 170.666667s-228.266667 27.818667-298.666667 71.296V149.333333c0-13.354667 19.669333-36.608 65.28-59.434666C337.664 60.373333 421.418667 42.666667 512 42.666667c90.581333 0 174.336 17.706667 233.386667 47.232 45.610667 22.826667 65.28 46.08 65.28 59.434666v92.629334zM128 149.333333v426.666667C128 682.026667 299.946667 768 512 768s384-85.973333 384-192v-426.666667c0-106.026667-171.946667-192-384-192s-384 85.973333-384 192z m384 320c90.581333 0 174.336 17.706667 233.386667 47.232C790.997333 539.392 810.666667 562.645333 810.666667 576c0 13.354667-19.669333 36.608-65.28 59.434667C686.336 664.96 602.581333 682.666667 512 682.666667c-90.581333 0-174.336-17.706667-233.386667-47.232C233.002667 612.608 213.333333 589.354667 213.333333 576c0-13.354667 19.669333-36.608 65.28-59.434667C337.664 487.04 421.418667 469.333333 512 469.333333z"  horiz-adv-x="1024" />

    
    <glyph glyph-name="ri-information-line" unicode="&#58926;" d="M512-42.666667C276.352-42.666667 85.333333 148.352 85.333333 384S276.352 810.666667 512 810.666667s426.666667-191.018667 426.666667-426.666667-191.018667-426.666667-426.666667-426.666667z m0 85.333334a341.333333 341.333333 0 1 1 0 682.709333A341.333333 341.333333 0 0 1 512 42.666667zM469.333333 597.333333h85.333334v-85.333333h-85.333334V597.333333z m0-170.666666h85.333334v-256h-85.333334v256z"  horiz-adv-x="1024" />

    
    <glyph glyph-name="save" unicode="&#58927;" d="M298.666667 85.333333v256h426.666666v-256h85.333334V562.005333L690.005333 682.666667H213.333333v-597.333334h85.333334zM170.666667 768h554.666666l170.666667-170.666667v-554.666666a42.666667 42.666667 0 0 0-42.666667-42.666667H170.666667a42.666667 42.666667 0 0 0-42.666667 42.666667V725.333333a42.666667 42.666667 0 0 0 42.666667 42.666667z m213.333333-512v-170.666667h256v170.666667H384z"  horiz-adv-x="1024" />

    
    <glyph glyph-name="ri-mail-line" unicode="&#58928;" d="M128 768h768a42.666667 42.666667 0 0 0 42.666667-42.666667v-682.666666a42.666667 42.666667 0 0 0-42.666667-42.666667H128a42.666667 42.666667 0 0 0-42.666667 42.666667V725.333333a42.666667 42.666667 0 0 0 42.666667 42.666667z m725.333333-180.821333l-338.261333-302.933334L170.666667 588.117333V85.333333h682.666666V587.178667zM192.469333 682.666667l322.133334-284.245334L832.085333 682.666667H192.469333z"  horiz-adv-x="1024" />

    
    <glyph glyph-name="ri-upload-line" unicode="&#58929;" d="M128 85.333333h768v-85.333333H128v85.333333zM554.666667 647.338667V170.666667h-85.333334V647.338667L210.304 388.266667l-60.330667 60.330666L512 810.666667l362.026667-362.026667-60.330667-60.330667L554.666667 647.253333v0.085334z"  horiz-adv-x="1024" />

    
    <glyph glyph-name="ri-smartphone-line" unicode="&#58930;" d="M298.666667 725.333333v-682.666666h426.666666V725.333333H298.666667zM256 810.666667h512a42.666667 42.666667 0 0 0 42.666667-42.666667v-768a42.666667 42.666667 0 0 0-42.666667-42.666667H256a42.666667 42.666667 0 0 0-42.666667 42.666667V768a42.666667 42.666667 0 0 0 42.666667 42.666667z m256-640a42.666667 42.666667 0 1 0 0-85.333334 42.666667 42.666667 0 0 0 0 85.333334z"  horiz-adv-x="1024" />

    
    <glyph glyph-name="ri-subtract-line" unicode="&#58931;" d="M213.333333 426.666667h597.333334v-85.333334H213.333333v85.333334z"  horiz-adv-x="1024" />

    
    <glyph glyph-name="ri-notification--line" unicode="&#58932;" d="M938.666667 42.666667H85.333333v85.333333h42.666667v297.344C128 638.165333 299.946667 810.666667 512 810.666667s384-172.501333 384-385.322667V128h42.666667v-85.333333zM213.333333 128h597.333334v297.344C810.666667 591.018667 676.949333 725.333333 512 725.333333s-298.666667-134.314667-298.666667-299.989333V128z m192-128h213.333334a106.666667 106.666667 0 0 0-213.333334 0z"  horiz-adv-x="1024" />

    
    <glyph glyph-name="ri-drag-move-line" unicode="&#58933;" d="M512 810.666667l181.034667-181.034667-60.373334-60.330667L512 690.005333 391.338667 569.301333 330.965333 629.632 512 810.666667zM85.333333 384l181.034667 181.034667 60.330667-60.373334L205.994667 384l120.704-120.661333-60.330667-60.373334L85.333333 384z m853.333334 0l-181.034667-181.034667-60.330667 60.373334L818.005333 384l-120.704 120.661333 60.330667 60.373334L938.666667 384z m-426.666667-85.333333a85.333333 85.333333 0 1 0 0 170.666666 85.333333 85.333333 0 0 0 0-170.666666z m0-341.333334l-181.034667 181.034667 60.373334 60.330667L512 77.994667l120.661333 120.704 60.373334-60.330667L512-42.666667z"  horiz-adv-x="1024" />

    
    <glyph glyph-name="ri-eye-line" unicode="&#58934;" d="M512 768c230.058667 0 421.461333-165.546667 461.610667-384-40.106667-218.453333-231.552-384-461.653334-384-230.016 0-421.418667 165.546667-461.568 384C90.453333 602.453333 281.941333 768 512 768z m0-682.666667a384.213333 384.213333 0 0 1 374.485333 298.666667 384.213333 384.213333 0 0 1-748.970666 0A384.213333 384.213333 0 0 1 512 85.333333z m0 106.666667a192 192 0 1 0 0 384 192 192 0 0 0 0-384z m0 85.333333a106.666667 106.666667 0 1 1 0 213.333334 106.666667 106.666667 0 0 1 0-213.333334z"  horiz-adv-x="1024" />

    
    <glyph glyph-name="ri-message--line" unicode="&#58935;" d="M275.413333 85.333333L85.333333-64V725.333333a42.666667 42.666667 0 0 0 42.666667 42.666667h768a42.666667 42.666667 0 0 0 42.666667-42.666667v-597.333333a42.666667 42.666667 0 0 0-42.666667-42.666667H275.413333z m-29.525333 85.333334H853.333333V682.666667H170.666667v-571.093334L245.888 170.666667zM469.333333 469.333333h85.333334v-85.333333h-85.333334v85.333333z m-170.666666 0h85.333333v-85.333333H298.666667v85.333333z m341.333333 0h85.333333v-85.333333h-85.333333v85.333333z"  horiz-adv-x="1024" />

    
    <glyph glyph-name="ri-input-method-line" unicode="&#58936;" d="M213.333333 682.666667v-597.333334h597.333334V682.666667H213.333333zM170.666667 768h682.666666a42.666667 42.666667 0 0 0 42.666667-42.666667v-682.666666a42.666667 42.666667 0 0 0-42.666667-42.666667H170.666667a42.666667 42.666667 0 0 0-42.666667 42.666667V725.333333a42.666667 42.666667 0 0 0 42.666667 42.666667z m250.410666-512l-34.986666-85.333333H291.541333L469.333333 597.333333h85.333334l177.792-426.666666H637.866667l-34.986667 85.333333H421.077333z m34.986667 85.333333h111.872L512 477.866667 456.064 341.333333z"  horiz-adv-x="1024" />

    
    <glyph glyph-name="search--line" unicode="&#58937;" d="M769.322667 187.008l182.741333-182.698667-60.373333-60.373333-182.698667 182.741333A382.293333 382.293333 0 0 0 469.333333 42.666667c-211.968 0-384 172.032-384 384s172.032 384 384 384 384-172.032 384-384a382.293333 382.293333 0 0 0-84.010666-239.658667z m-85.589334 31.658667A297.685333 297.685333 0 0 1 768 426.666667c0 165.034667-133.674667 298.666667-298.666667 298.666666-165.034667 0-298.666667-133.632-298.666666-298.666666 0-164.992 133.632-298.666667 298.666666-298.666667a297.685333 297.685333 0 0 1 208 84.266667l6.4 6.4z"  horiz-adv-x="1024" />

    
    <glyph glyph-name="add-line" unicode="&#58901;" d="M469.333333 426.666667V682.666667h85.333334v-256h256v-85.333334h-256v-256h-85.333334v256H213.333333v85.333334h256z"  horiz-adv-x="1024" />

    
    <glyph glyph-name="arrow-down-s-fill" unicode="&#58902;" d="M512 213.333333l-256 256h512l-256-256z"  horiz-adv-x="1024" />

    
    <glyph glyph-name="arrow-drop-down-line-" unicode="&#58903;" d="M512 256L330.979556 437.020444l60.359111 60.302223L512 376.718222l120.661333 120.718222 60.359111-60.302222L512 256z"  horiz-adv-x="1024" />

    
    <glyph glyph-name="check" unicode="&#58904;" d="M426.666667 248.604444l392.192 392.305778 60.359111-60.302222L426.666667 128 155.136 399.530667l60.302222 60.302222L426.666667 248.661333z"  horiz-adv-x="1024" />

    
    <glyph glyph-name="down" unicode="&#58905;" d="M512 343.466667L723.2 554.666667l60.330667-60.330667L512 222.805333 240.469333 494.336 300.8 554.666667 512 343.466667z"  horiz-adv-x="1024" />

    
    <glyph glyph-name="move" unicode="&#58906;" d="M384 768h85.333333v-85.333333H384zM384 597.333333h85.333333v-85.333333H384zM384 426.666667h85.333333v-85.333334H384zM384 256h85.333333v-85.333333H384zM384 85.333333h85.333333v-85.333333H384zM554.666667 768h85.333333v-85.333333h-85.333333zM554.666667 597.333333h85.333333v-85.333333h-85.333333zM554.666667 426.666667h85.333333v-85.333334h-85.333333zM554.666667 256h85.333333v-85.333333h-85.333333zM554.666667 85.333333h85.333333v-85.333333h-85.333333z"  horiz-adv-x="1024" />

    
    <glyph glyph-name="functions" unicode="&#58907;" d="M213.333333 128l327.68 256L213.333333 640V725.333333h597.333334v-85.333333H352.554667L682.666667 384l-330.112-256H810.666667v-85.333333H213.333333v85.333333z"  horiz-adv-x="1024" />

    
    <glyph glyph-name="ri-arrow-left-s-line" unicode="&#58908;" d="M461.994667 384l211.2-211.2-60.330667-60.330667L341.333333 384l271.530667 271.530667 60.330667-60.330667-211.2-211.2z"  horiz-adv-x="1024" />

    
    <glyph glyph-name="ri-arrow-down-circle-line" unicode="&#58909;" d="M512 810.666667c235.52 0 426.666667-191.146667 426.666667-426.666667s-191.146667-426.666667-426.666667-426.666667S85.333333 148.48 85.333333 384 276.48 810.666667 512 810.666667z m0-768c188.586667 0 341.333333 152.746667 341.333333 341.333333s-152.746667 341.333333-341.333333 341.333333-341.333333-152.746667-341.333333-341.333333 152.746667-341.333333 341.333333-341.333333z m42.666667 341.333333h128l-170.666667-170.666667-170.666667 170.666667h128V554.666667h85.333334v-170.666667z"  horiz-adv-x="1024" />

    
    <glyph glyph-name="question-fill-" unicode="&#58910;" d="M512-42.666667a426.666667 426.666667 0 1 0 0 853.333334 426.666667 426.666667 0 0 0 0-853.333334z m-42.666667 298.666667v-85.333333h85.333334v85.333333h-85.333334z m85.333334 70.200889A149.390222 149.390222 0 0 1 512 618.666667a149.390222 149.390222 0 0 1-146.488889-120.035556l83.740445-16.725333A64 64 0 1 0 512 405.333333a42.666667 42.666667 0 0 1-42.666667-42.666666V298.666667h85.333334v27.534222z"  horiz-adv-x="1024" />

    
    <glyph glyph-name="arrow-right-s-fill" unicode="&#58911;" d="M682.666667 384l-256-256V640l256-256z"  horiz-adv-x="1024" />

    
    <glyph glyph-name="ri-arrow-right-circle-line" unicode="&#58912;" d="M512 426.666667V554.666667l170.666667-170.666667-170.666667-170.666667v128H341.333333v85.333334h170.666667z m0 384c235.52 0 426.666667-191.146667 426.666667-426.666667s-191.146667-426.666667-426.666667-426.666667S85.333333 148.48 85.333333 384 276.48 810.666667 512 810.666667z m0-768c188.586667 0 341.333333 152.746667 341.333333 341.333333s-152.746667 341.333333-341.333333 341.333333-341.333333-152.746667-341.333333-341.333333 152.746667-341.333333 341.333333-341.333333z"  horiz-adv-x="1024" />

    
    <glyph glyph-name="close-line" unicode="&#58913;" d="M512 444.330667l211.2 211.2 60.330667-60.330667-211.2-211.2 211.2-211.2-60.330667-60.330667-211.2 211.2-211.2-211.2-60.330667 60.330667 211.2 211.2-211.2 211.2L300.8 655.530667l211.2-211.2z"  horiz-adv-x="1024" />

    
    <glyph glyph-name="question-line" unicode="&#58914;" d="M512-42.666667C276.352-42.666667 85.333333 148.352 85.333333 384S276.352 810.666667 512 810.666667s426.666667-191.018667 426.666667-426.666667-191.018667-426.666667-426.666667-426.666667z m0 85.333334a341.333333 341.333333 0 1 1 0 682.709333A341.333333 341.333333 0 0 1 512 42.666667z m-42.666667 213.333333h85.333334v-85.333333h-85.333334v85.333333z m85.333334 70.186667V298.666667h-85.333334v64a42.666667 42.666667 0 0 0 42.666667 42.666666 64 64 0 1 1-62.762667 76.544l-83.712 16.768A149.333333 149.333333 0 1 0 554.666667 326.186667z"  horiz-adv-x="1024" />

    
    <glyph glyph-name="ri-delete-bin--line" unicode="&#58915;" d="M298.666667 725.333333V810.666667h426.666666v-85.333334h213.333334v-85.333333h-85.333334v-640a42.666667 42.666667 0 0 0-42.666666-42.666667H213.333333a42.666667 42.666667 0 0 0-42.666666 42.666667V640H85.333333V725.333333h213.333334zM256 640v-597.333333h512V640H256z m128-128h85.333333v-341.333333H384V512z m170.666667 0h85.333333v-341.333333h-85.333333V512z"  horiz-adv-x="1024" />

    
    <glyph glyph-name="ri-book--line" unicode="&#58916;" d="M896 128H256a42.666667 42.666667 0 0 1 0-85.333333h640v-85.333334H256a128 128 0 0 0-128 128V725.333333a85.333333 85.333333 0 0 0 85.333333 85.333334h682.666667v-682.666667zM213.333333 211.2c6.912 1.408 14.037333 2.133333 21.333334 2.133333H810.666667V725.333333H213.333333v-514.133333zM682.666667 512H341.333333V597.333333h341.333334v-85.333333z"  horiz-adv-x="1024" />

    
    <glyph glyph-name="ri-delete-bin--fill" unicode="&#58917;" d="M298.666667 640V768a42.666667 42.666667 0 0 0 42.666666 42.666667h341.333334a42.666667 42.666667 0 0 0 42.666666-42.666667v-128h213.333334v-85.333333h-85.333334v-554.666667a42.666667 42.666667 0 0 0-42.666666-42.666667H213.333333a42.666667 42.666667 0 0 0-42.666666 42.666667V554.666667H85.333333V640h213.333334z m85.333333 85.333333v-85.333333h256V725.333333H384z"  horiz-adv-x="1024" />

    
    <glyph glyph-name="ri-check-double-line" unicode="&#58918;" d="M495.018667 308.906667l60.245333-60.245334 361.216 361.216 60.330667-60.330666-421.546667-421.546667-271.530667 271.530667 60.330667 60.330666 90.666667-90.666666 60.288-60.245334v-0.042666z m0.085333 120.661333l211.285333 211.328 60.16-60.16-211.285333-211.328-60.16 60.16z m-120.618667-241.28L314.197333 128 42.666667 399.530667l60.330666 60.330666 60.288-60.288-0.042666-0.042666 211.242666-211.242667z"  horiz-adv-x="1024" />

    
    <glyph glyph-name="ri-edit-line" unicode="&#58919;" d="M273.664 213.333333L706.389333 646.058667l-60.330666 60.330666L213.333333 273.664V213.333333h60.330667z m35.370667-85.333333H128v181.034667L615.893333 796.928a42.666667 42.666667 0 0 0 60.330667 0l120.704-120.746667a42.666667 42.666667 0 0 0 0-60.288L309.034667 128zM128 42.666667h768v-85.333334H128v85.333334z"  horiz-adv-x="1024" />

    
    <glyph glyph-name="ri-eye-close-line" unicode="&#58920;" d="M398.620444 94.663111l-82.432 22.072889 33.564445 125.383111a468.992 468.992 0 0 0-138.069333 79.872l-91.875556-91.875555-60.359111 60.359111L151.324444 382.350222A467.512889 467.512889 0 0 0 50.176 598.641778l83.968 15.36a384.113778 384.113778 0 0 1 755.712 0l83.968-15.303111a467.456 467.456 0 0 0-101.091556-216.348445l91.818667-91.875555-60.302222-60.359111-91.932445 91.875555a468.992 468.992 0 0 0-138.069333-79.872l33.564445-125.44-82.375112-22.016-33.621333 125.383111c-52.849778-9.045333-106.780444-9.045333-159.573333 0l-33.621334-125.383111z"  horiz-adv-x="1024" />

    
    <glyph glyph-name="play-line-" unicode="&#58921;" d="M699.477333 384L426.666667 565.888v-363.776L699.477333 384z m127.232-17.749333L374.485333 64.768A21.333333 21.333333 0 0 0 341.333333 82.517333V685.482667a21.333333 21.333333 0 0 0 33.152 17.749333l452.224-301.482667a21.333333 21.333333 0 0 0 0-35.498666z"  horiz-adv-x="1024" />

    
    <glyph glyph-name="ri-checkbox-circle-line" unicode="&#58922;" d="M512-42.666667C276.352-42.666667 85.333333 148.352 85.333333 384S276.352 810.666667 512 810.666667s426.666667-191.018667 426.666667-426.666667-191.018667-426.666667-426.666667-426.666667z m0 85.333334a341.333333 341.333333 0 1 1 0 682.709333A341.333333 341.333333 0 0 1 512 42.666667z m-42.538667 170.666666L288.426667 394.368l60.330666 60.330667 120.704-120.704 241.322667 241.365333 60.373333-60.330667L469.461333 213.333333z"  horiz-adv-x="1024" />

    


  </font>
</defs>
</svg>
